<svg width="2357" height="2098" viewBox="0 0 2357 2098" fill="none" xmlns="http://www.w3.org/2000/svg">
<path d="M407.534 160.124C785.054 160.124 1162.57 160.124 1551.53 160.124C1551.53 186.821 1551.53 213.519 1551.53 241.026C1578.24 241.026 1604.94 241.026 1632.45 241.026C1632.45 266.982 1632.45 292.938 1632.45 319.681C1657.66 319.681 1682.88 319.681 1708.86 319.681C1708.86 485.8 1708.86 651.92 1708.86 823.073C1784.51 823.073 1860.17 823.073 1938.11 823.073C1958.59 833.311 1958.59 833.311 1965.08 843.299C1965.89 844.525 1966.69 845.751 1967.52 847.015C1970.52 854.702 1970.2 862.235 1970.16 870.366C1970.16 872.211 1970.17 874.056 1970.18 875.957C1970.2 882.18 1970.19 888.403 1970.18 894.626C1970.19 899.117 1970.2 903.608 1970.21 908.098C1970.24 920.47 1970.24 932.842 1970.23 945.214C1970.23 958.545 1970.26 971.876 1970.28 985.207C1970.31 1011.34 1970.33 1037.47 1970.33 1063.6C1970.33 1084.83 1970.34 1106.07 1970.35 1127.3C1970.36 1133.41 1970.36 1139.52 1970.37 1145.63C1970.37 1147.91 1970.37 1147.91 1970.37 1150.23C1970.4 1192.96 1970.41 1235.69 1970.41 1278.42C1970.41 1280.04 1970.41 1281.65 1970.41 1283.31C1970.41 1291.48 1970.41 1299.64 1970.41 1307.81C1970.41 1310.25 1970.41 1310.25 1970.41 1312.73C1970.41 1316.01 1970.41 1319.29 1970.41 1322.57C1970.41 1373.61 1970.44 1424.65 1970.5 1475.69C1970.57 1533.02 1970.61 1590.34 1970.61 1647.67C1970.61 1653.78 1970.61 1659.89 1970.61 1666C1970.61 1668.26 1970.61 1668.26 1970.61 1670.57C1970.61 1693.29 1970.63 1716.02 1970.67 1738.74C1970.71 1764.59 1970.72 1790.44 1970.69 1816.29C1970.67 1829.48 1970.67 1842.67 1970.71 1855.87C1970.74 1867.94 1970.74 1880.01 1970.7 1892.09C1970.69 1896.46 1970.7 1900.83 1970.73 1905.2C1970.76 1911.14 1970.73 1917.07 1970.7 1923.01C1970.72 1924.71 1970.74 1926.41 1970.76 1928.16C1970.58 1941.75 1966.75 1953.69 1957.26 1963.72C1948.06 1971.7 1941.08 1973.96 1929.18 1973.99C1926.86 1974 1924.53 1974.01 1922.14 1974.02C1919.58 1974.02 1917.02 1974.02 1914.38 1974.02C1911.67 1974.02 1908.96 1974.03 1906.16 1974.04C1898.62 1974.06 1891.07 1974.07 1883.53 1974.08C1875.4 1974.09 1867.27 1974.11 1859.14 1974.13C1839.5 1974.17 1819.86 1974.19 1800.21 1974.21C1790.97 1974.22 1781.72 1974.24 1772.47 1974.25C1741.74 1974.29 1711.01 1974.32 1680.28 1974.33C1672.31 1974.34 1664.33 1974.34 1656.36 1974.35C1654.37 1974.35 1652.39 1974.35 1650.35 1974.35C1618.22 1974.37 1586.1 1974.43 1553.98 1974.5C1521 1974.57 1488.03 1974.61 1455.06 1974.62C1436.54 1974.63 1418.03 1974.65 1399.51 1974.7C1383.75 1974.75 1367.98 1974.77 1352.21 1974.75C1344.17 1974.74 1336.12 1974.74 1328.08 1974.79C1319.36 1974.83 1310.64 1974.81 1301.92 1974.78C1299.37 1974.81 1296.83 1974.83 1294.21 1974.86C1280.72 1974.74 1271.86 1974.33 1261.6 1964.7C1259.64 1961.56 1257.69 1958.42 1255.74 1955.28C1251.54 1949.45 1249.39 1947.09 1242.43 1945.06C1235.08 1944.41 1227.93 1944.35 1220.56 1944.47C1216.35 1944.43 1216.35 1944.43 1212.07 1944.4C1204.3 1944.35 1196.55 1944.38 1188.79 1944.44C1180.41 1944.49 1172.04 1944.44 1163.66 1944.4C1149.16 1944.34 1134.66 1944.35 1120.15 1944.4C1099.18 1944.48 1078.22 1944.45 1057.25 1944.41C1023.22 1944.34 989.203 1944.34 955.181 1944.4C922.134 1944.46 889.086 1944.47 856.039 1944.44C854.002 1944.44 851.964 1944.44 849.865 1944.44C839.644 1944.43 829.424 1944.41 819.203 1944.4C734.422 1944.31 649.643 1944.35 564.862 1944.47C564.862 1919.26 564.862 1894.04 564.862 1868.06C538.903 1868.06 512.944 1868.06 486.198 1868.06C486.198 1841.36 486.198 1814.67 486.198 1787.16C460.239 1787.16 434.28 1787.16 407.534 1787.16C407.534 1250.24 407.534 713.316 407.534 160.124Z" fill="#1B2727"/>
<path d="M430.01 184.844C792.696 184.844 1155.38 184.844 1529.06 184.844C1529.06 395.46 1529.06 606.075 1529.06 823.073C1472.69 823.073 1416.32 823.073 1358.25 823.073C1358.25 710.349 1358.25 597.625 1358.25 481.486C1330.06 481.486 1301.88 481.486 1272.84 481.486C1272.93 491.819 1273.03 502.152 1273.12 512.799C1273.42 546.92 1273.62 581.04 1273.77 615.162C1273.86 635.853 1273.99 656.542 1274.2 677.232C1274.38 695.267 1274.49 713.301 1274.53 731.338C1274.55 740.886 1274.61 750.433 1274.74 759.981C1274.86 768.974 1274.9 777.963 1274.87 786.957C1274.88 790.252 1274.91 793.547 1274.98 796.841C1275.48 821.85 1275.48 821.85 1268.86 830.552C1264 834.709 1264 834.709 1259.16 837.905C1253.9 841.247 1253.9 841.247 1250.36 850.041C1249.62 956.09 1248.88 1062.14 1248.12 1171.4C1030.06 1171.4 812.003 1171.4 587.338 1171.4C587.338 1314.53 587.338 1457.66 587.338 1605.13C806.137 1605.13 1024.94 1605.13 1250.36 1605.13C1250.36 1657.04 1250.36 1708.95 1250.36 1762.44C1146.18 1762.49 1042 1762.53 937.813 1762.55C925.527 1762.56 913.241 1762.56 900.955 1762.56C898.509 1762.56 896.063 1762.56 893.542 1762.56C853.881 1762.57 814.22 1762.59 774.559 1762.61C733.895 1762.63 693.231 1762.65 652.567 1762.65C627.454 1762.65 602.34 1762.66 577.227 1762.68C560.031 1762.69 542.834 1762.7 525.638 1762.69C515.701 1762.69 505.764 1762.7 495.827 1762.71C486.745 1762.72 477.663 1762.72 468.582 1762.71C465.281 1762.71 461.981 1762.71 458.681 1762.72C454.224 1762.73 449.768 1762.72 445.311 1762.72C441.584 1762.72 441.584 1762.72 437.783 1762.72C432.258 1762.44 432.258 1762.44 430.01 1760.19C429.791 1756.74 429.731 1753.27 429.731 1749.81C429.726 1747.55 429.721 1745.29 429.716 1742.95C429.722 1740.43 429.728 1737.91 429.734 1735.31C429.731 1732.65 429.729 1729.99 429.726 1727.24C429.721 1719.79 429.726 1712.33 429.735 1704.88C429.743 1696.79 429.738 1688.7 429.734 1680.62C429.729 1666.42 429.733 1652.23 429.742 1638.03C429.756 1616.92 429.757 1595.82 429.755 1574.71C429.752 1539.21 429.759 1503.71 429.773 1468.21C429.786 1433.04 429.795 1397.87 429.797 1362.7C429.797 1360.52 429.797 1358.34 429.797 1356.09C429.798 1345 429.799 1333.91 429.8 1322.82C429.804 1244.2 429.819 1165.58 429.841 1086.96C429.861 1010.57 429.877 934.175 429.887 857.782C429.887 852.981 429.888 848.18 429.889 843.379C429.894 804.37 429.898 765.362 429.903 726.354C429.924 545.851 429.969 365.347 430.01 184.844Z" fill="#FDFDFD"/>
<path d="M405.286 160.124C406.028 160.124 406.77 160.124 407.534 160.124C407.534 697.045 407.534 1233.97 407.534 1787.16C433.493 1787.16 459.452 1787.16 486.198 1787.16C486.198 1813.86 486.198 1840.56 486.198 1868.06C512.157 1868.06 538.116 1868.06 564.862 1868.06C564.862 1893.28 564.862 1918.49 564.862 1944.47C573.387 1944.42 581.912 1944.38 590.695 1944.33C668.858 1943.93 747.022 1943.63 825.186 1943.44C835.429 1943.41 845.672 1943.39 855.915 1943.36C857.954 1943.35 859.994 1943.35 862.095 1943.34C895.12 1943.25 928.144 1943.1 961.169 1942.91C995.052 1942.72 1028.93 1942.61 1062.82 1942.57C1083.73 1942.54 1104.64 1942.45 1125.55 1942.29C1139.88 1942.18 1154.22 1942.15 1168.55 1942.17C1176.83 1942.19 1185.1 1942.17 1193.37 1942.06C1202.35 1941.94 1211.31 1941.98 1220.28 1942.04C1224.2 1941.95 1224.2 1941.95 1228.2 1941.86C1245.59 1942.15 1245.59 1942.15 1252.93 1948.9C1257.02 1954.31 1257.02 1954.31 1260.29 1959.7C1264.61 1965.76 1268.37 1968.29 1275.09 1971.44C1280.77 1972.44 1280.77 1972.44 1286.79 1972.3C1290.27 1972.33 1290.27 1972.33 1293.83 1972.37C1297.64 1972.35 1297.64 1972.35 1301.52 1972.33C1304.23 1972.35 1306.94 1972.36 1309.73 1972.38C1317.24 1972.41 1324.75 1972.42 1332.25 1972.41C1340.35 1972.41 1348.45 1972.45 1356.55 1972.48C1370.59 1972.53 1384.62 1972.56 1398.65 1972.57C1418.93 1972.58 1439.22 1972.63 1459.51 1972.69C1492.42 1972.79 1525.33 1972.86 1558.25 1972.91C1590.22 1972.95 1622.19 1973.01 1654.17 1973.09C1656.14 1973.1 1658.11 1973.1 1660.14 1973.11C1670.03 1973.13 1679.91 1973.16 1689.8 1973.18C1771.82 1973.39 1853.84 1973.56 1935.86 1973.68C1935.86 1974.43 1935.86 1975.17 1935.86 1975.93C1933.34 1975.93 1930.81 1975.93 1928.21 1975.94C1866.72 1975.97 1805.23 1976.06 1743.74 1976.23C1714 1976.31 1684.26 1976.36 1654.53 1976.37C1628.6 1976.38 1602.68 1976.42 1576.76 1976.52C1563.03 1976.56 1549.31 1976.59 1535.59 1976.57C1522.66 1976.56 1509.74 1976.59 1496.81 1976.67C1492.08 1976.69 1487.34 1976.69 1482.61 1976.67C1458.04 1976.57 1438.41 1976.65 1416.68 1989.42C1408.54 1992.69 1400.25 1995.52 1391.96 1998.4C1388.4 1999.65 1384.84 2000.9 1381.27 2002.14C1375.35 2004.22 1369.42 2006.29 1363.48 2008.36C1353.73 2011.76 1344.02 2015.23 1334.37 2018.91C1321.82 2023.57 1308.9 2026.92 1295.94 2030.23C1286.36 2032.76 1279.07 2035.88 1270.59 2041.1C1263.84 2043.25 1263.84 2043.25 1255.84 2045.18C1254.32 2045.54 1252.8 2045.91 1251.24 2046.28C1189.81 2060.81 1127.77 2072.78 1065.46 2082.8C1059.75 2083.73 1054.05 2084.71 1048.36 2085.7C1019.94 2090.56 991.436 2093.13 962.677 2095.04C958.523 2095.33 958.523 2095.33 954.285 2095.63C921.904 2097.79 889.485 2097.93 857.043 2097.99C855.543 2097.99 854.044 2097.99 852.499 2098C798.176 2098.09 744.594 2095.55 690.725 2088.3C689.196 2088.09 687.667 2087.88 686.092 2087.67C663.271 2084.56 640.954 2081.15 618.803 2074.81C611.727 2073.01 604.629 2071.31 597.53 2069.6C517.829 2050.2 517.829 2050.2 488.165 2040.26C485.166 2039.26 485.166 2039.26 482.107 2038.24C470.401 2034.15 459.507 2029.04 448.484 2023.37C442.781 2020.52 437.02 2018.32 430.993 2016.24C405.919 2006.92 382.092 1994.42 358.088 1982.67C358.088 1981.19 358.088 1979.71 358.088 1978.18C356.801 1977.91 355.514 1977.63 354.188 1977.35C325.31 1969.29 297.57 1947.54 274.157 1929.36C268.456 1924.97 262.617 1920.77 256.808 1916.52C214.085 1884.17 173.386 1846.72 142.324 1802.89C139 1798.63 135.676 1794.37 132.35 1790.11C83.8875 1725.33 83.8875 1725.33 83.8875 1706.26C82.4041 1706.26 80.9207 1706.26 79.3924 1706.26C52.4219 1643.33 52.4219 1643.33 50.6354 1639.15C47.8706 1632.69 45.0767 1626.25 42.2201 1619.82C38.8175 1611.58 36.0687 1603.29 33.5987 1594.74C32.8862 1592.27 32.8862 1592.27 32.1594 1589.75C20.7723 1549.65 12.69 1509.41 7.47097 1468.04C7.12838 1465.33 6.78578 1462.62 6.4328 1459.83C1.34715 1417.46 0.0834552 1375.3 0.0259827 1332.65C0.0179248 1330.25 0.00986687 1327.85 0.00156478 1325.37C-0.0546189 1294.32 1.40028 1263.75 4.67053 1232.87C5.43168 1225.59 6.08414 1218.31 6.74228 1211.03C11.9402 1156.89 19.3473 1102.94 32.194 1050.05C33.271 1045.09 34.3479 1040.12 35.4248 1035.16C38.1813 1023.28 41.6756 1011.73 45.4153 1000.13C50.0118 985.741 54.0281 971.208 58.0407 956.646C63.796 935.848 69.9244 915.325 77.1449 894.986C77.7359 893.286 78.3269 891.586 78.9359 889.833C81.8581 881.701 85.2901 873.891 88.9269 866.053C95.6437 851.338 101.721 836.388 107.768 821.388C120.757 789.268 120.757 789.268 126.591 775.88C128.074 775.88 129.558 775.88 131.086 775.88C131.318 773.841 131.549 771.801 131.788 769.7C133.411 762.031 135.479 759.496 140.076 753.407C141.561 750.044 142.927 746.626 144.185 743.172C149.177 730.226 155.449 718.154 161.99 705.933C163.128 703.784 164.267 701.634 165.44 699.42C168.213 694.188 170.996 688.962 173.789 683.741C175.273 683.741 176.756 683.741 178.284 683.741C178.455 682.241 178.626 680.74 178.802 679.194C181.096 670.325 185.514 663.127 190.224 655.369C191.212 653.72 192.199 652.07 193.217 650.37C209.852 622.734 226.882 595.331 245.711 569.13C247.765 566.197 249.817 563.262 251.865 560.325C265.804 540.375 280.092 520.828 295.157 501.711C296.649 499.808 298.141 497.905 299.678 495.944C321.699 468.119 345.089 441.419 368.869 415.094C373.38 410.064 377.825 404.987 382.249 399.881C388.176 393.073 394.314 386.644 400.791 380.358C405.602 375.547 403.458 364.515 403.5 357.845C403.523 355.718 403.545 353.592 403.568 351.401C403.639 344.336 403.695 337.271 403.75 330.206C403.796 325.322 403.843 320.438 403.891 315.554C404.016 302.671 404.127 289.789 404.235 276.906C404.348 263.771 404.473 250.636 404.597 237.501C404.839 211.709 405.067 185.916 405.286 160.124Z" fill="#023FCF"/>
<path d="M1632.45 317.434C1658.41 317.434 1684.36 317.434 1711.11 317.434C1711.11 387.144 1711.11 456.855 1711.11 528.679C1770.85 522.082 1770.85 522.082 1830.23 512.948C1837.72 511.655 1845.21 510.378 1852.71 509.155C1854.4 508.864 1856.1 508.573 1857.84 508.273C1869.75 506.343 1881.1 505.954 1893.16 506.206C1893.16 504.723 1893.16 503.239 1893.16 501.711C1987.39 486.484 2080.52 500.008 2165.11 544.41C2165.11 545.893 2165.11 547.376 2165.11 548.904C2166.62 549.423 2168.13 549.941 2169.69 550.476C2178.15 554.188 2185.43 559.046 2193.07 564.214C2194.51 565.171 2195.96 566.129 2197.44 567.115C2209.42 575.152 2221.14 583.414 2230.15 594.833C2234.55 600.162 2238.9 604.495 2244.34 608.738C2256.75 619.075 2265.85 632.53 2275.24 645.538C2276.18 646.815 2277.12 648.093 2278.08 649.41C2299.2 678.473 2316.01 711.355 2327.23 745.518C2329.08 750.852 2331.22 755.932 2333.47 761.106C2339.21 775.387 2342.19 790.04 2345.2 805.095C2345.76 807.763 2346.33 810.431 2346.91 813.18C2354.81 851.842 2357.08 889.993 2357 929.398C2357 931.655 2357 933.912 2357 936.238C2356.87 995.466 2350.12 1053.82 2330.91 1110.15C2327.99 1118.73 2325.3 1127.37 2322.58 1136.01C2321.99 1137.87 2321.41 1139.73 2320.8 1141.64C2317.47 1152.2 2314.24 1162.77 2311.06 1173.37C2304.7 1194.08 2296.75 1214.05 2287.57 1233.66C2284.94 1239.5 2282.46 1245.35 2280.06 1251.29C2267.35 1282.34 2251.88 1311.1 2234.79 1339.95C2233.73 1341.76 2232.67 1343.57 2231.57 1345.44C2208.59 1384.59 2182.46 1421.55 2153.88 1456.81C2151.52 1459.75 2149.16 1462.68 2146.8 1465.62C2118.38 1500.93 2089.1 1535.52 2056.76 1567.33C2052.65 1571.5 2048.82 1575.83 2045.01 1580.27C2032.13 1595.2 2018.06 1608.73 2003.1 1621.54C1997.37 1626.62 1992.05 1632.03 1986.75 1637.54C1983.06 1641.09 1983.06 1641.09 1978.41 1643.94C1973.6 1647.49 1973.6 1647.49 1972.93 1653.18C1972.92 1656.38 1972.92 1656.38 1972.91 1659.64C1972.88 1662.09 1972.84 1664.54 1972.81 1667.06C1972.83 1671.09 1972.83 1671.09 1972.85 1675.2C1972.81 1679.45 1972.81 1679.45 1972.78 1683.78C1972.71 1691.53 1972.71 1699.29 1972.71 1707.05C1972.7 1715.16 1972.64 1723.26 1972.59 1731.37C1972.5 1746.72 1972.45 1762.08 1972.42 1777.43C1972.39 1794.91 1972.3 1812.39 1972.21 1829.86C1972.03 1865.82 1971.91 1901.77 1971.83 1937.73C1971.08 1937.73 1970.34 1937.73 1969.58 1937.73C1969.58 1934.29 1969.58 1934.29 1969.58 1930.79C1969.55 1829.87 1969.52 1728.96 1969.41 1628.04C1969.41 1626.51 1969.41 1624.99 1969.41 1623.41C1969.37 1590.21 1969.33 1557.01 1969.29 1523.81C1969.27 1507.53 1969.25 1491.25 1969.23 1474.97C1969.23 1473.35 1969.23 1471.72 1969.23 1470.06C1969.17 1417.54 1969.14 1365.02 1969.14 1312.5C1969.13 1258.53 1969.09 1204.56 1969 1150.59C1968.99 1142.97 1968.98 1135.34 1968.96 1127.72C1968.96 1125.47 1968.96 1125.47 1968.96 1123.18C1968.92 1100.52 1968.92 1077.86 1968.93 1055.21C1968.95 1029.43 1968.93 1003.66 1968.86 977.884C1968.83 964.728 1968.81 951.573 1968.84 938.417C1968.87 926.376 1968.85 914.336 1968.79 902.294C1968.77 897.936 1968.78 893.577 1968.81 889.218C1968.84 883.295 1968.8 877.375 1968.75 871.452C1968.77 869.758 1968.8 868.063 1968.83 866.318C1968.6 853.753 1965.15 843.309 1956.09 834.31C1882.31 797.421 1791.35 823.882 1708.86 823.073C1708.86 656.954 1708.86 490.834 1708.86 319.681C1683.65 319.681 1658.43 319.681 1632.45 319.681C1632.45 318.939 1632.45 318.198 1632.45 317.434Z" fill="#023FCF"/>
<path d="M1161.87 0.00459498C1163.92 0.00307865 1165.97 0.00156229 1168.08 0C1213.02 0.0527706 1255.22 2.37412 1297.56 18.5447C1303.08 20.2902 1308.61 22.0222 1314.14 23.7416C1327.24 28.1148 1339.8 33.2707 1352.35 39.0512C1354.02 39.8082 1355.69 40.5652 1357.41 41.3451C1361.53 43.2977 1365.52 45.5105 1369.48 47.7594C1370.22 49.9843 1370.97 52.2091 1371.73 54.5013C1375.78 56.8305 1375.78 56.8305 1380.72 58.9959C1413.95 80.1724 1445.01 114.976 1457.14 153.382C1457.14 155.607 1457.14 157.832 1457.14 160.124C1202.74 160.124 948.338 160.124 686.229 160.124C698.125 150.608 710.477 143.405 723.723 136.053C727.515 133.945 731.3 131.825 735.082 129.698C741.73 125.961 748.393 122.252 755.061 118.549C757.219 117.334 759.377 116.119 761.601 114.866C763.643 113.741 765.686 112.616 767.791 111.456C769.615 110.441 771.439 109.425 773.319 108.379C778.379 106.189 778.379 106.189 787.369 106.189C787.369 104.706 787.369 103.222 787.369 101.694C793.303 100.211 799.236 98.7279 805.349 97.1998C805.349 95.7166 805.349 94.2333 805.349 92.7052C814.74 88.5714 824.137 84.4524 833.54 80.3468C836.735 78.9491 839.929 77.5476 843.12 76.1419C847.719 74.1176 852.323 72.1078 856.929 70.1006C858.346 69.4732 859.762 68.8458 861.222 68.1993C868.769 64.9282 875.874 62.4927 884.013 61.2432C884.013 59.76 884.013 58.2768 884.013 56.7486C922.208 42.0671 960.456 30.3982 1000.1 20.4464C1004.94 19.225 1009.76 17.9689 1014.58 16.6694C1031 12.3074 1047.21 9.91963 1064.1 8.15101C1069.07 7.61409 1074.04 7.07019 1079.01 6.51822C1082.24 6.17656 1082.24 6.17656 1085.55 5.82801C1090.83 5.33438 1090.83 5.33438 1095.28 2.8137C1117.36 -0.282448 1139.62 0.0193337 1161.87 0.00459498Z" fill="#023FCF"/>
<path d="M1356 928.696C1522.88 928.696 1689.76 928.696 1861.7 928.696C1861.7 976.9 1861.7 1025.1 1861.7 1074.77C1694.82 1074.77 1527.94 1074.77 1356 1074.77C1356 1026.57 1356 978.361 1356 928.696Z" fill="#5EA5DF"/>
<path d="M598.575 378.11C626.759 378.11 654.944 378.11 683.982 378.11C683.982 584.276 683.982 790.443 683.982 1002.86C655.798 1002.86 627.613 1002.86 598.575 1002.86C598.575 796.69 598.575 590.524 598.575 378.11Z" fill="#042EFF"/>
<path d="M510.921 1784.91C754.195 1784.91 997.469 1784.91 1248.12 1784.91C1248.12 1803.45 1248.12 1821.99 1248.12 1841.09C1004.84 1841.09 761.567 1841.09 510.921 1841.09C510.921 1822.55 510.921 1804.01 510.921 1784.91Z" fill="#FAFAFA"/>
<path d="M589.585 1865.81C806.9 1865.81 1024.22 1865.81 1248.12 1865.81C1248.12 1883.61 1248.12 1901.41 1248.12 1919.75C1030.8 1919.75 813.485 1919.75 589.585 1919.75C589.585 1901.95 589.585 1884.15 589.585 1865.81Z" fill="#FBFBFB"/>
<path d="M1104.27 593.85C1132.46 593.85 1160.64 593.85 1189.68 593.85C1189.68 728.822 1189.68 863.794 1189.68 1002.86C1161.5 1002.86 1133.31 1002.86 1104.27 1002.86C1104.27 867.884 1104.27 732.912 1104.27 593.85Z" fill="#042EFF"/>
<path d="M935.707 600.592C963.891 600.592 992.075 600.592 1021.11 600.592C1021.18 622.175 1021.23 643.758 1021.25 665.342C1021.26 667.031 1021.26 668.72 1021.26 670.461C1021.33 743.762 1020.71 817.054 1019.99 890.351C1019.96 893.09 1019.94 895.829 1019.91 898.651C1019.57 932.637 1019.22 966.623 1018.87 1000.61C991.424 1000.61 963.981 1000.61 935.707 1000.61C935.707 868.603 935.707 736.598 935.707 600.592Z" fill="#002BFF"/>
<path d="M1551.53 265.746C1570.08 265.746 1588.62 265.746 1607.72 265.746C1607.72 449.664 1607.72 633.582 1607.72 823.073C1589.18 823.073 1570.64 823.073 1551.53 823.073C1551.53 639.155 1551.53 455.237 1551.53 265.746Z" fill="#FBFBFB"/>
<path d="M1272.84 481.486C1301.02 481.486 1329.21 481.486 1358.25 481.486C1358.25 594.21 1358.25 706.934 1358.25 823.074C1330.06 823.815 1301.88 824.557 1272.84 825.321C1272.84 711.855 1272.84 598.39 1272.84 481.486Z" fill="#042DFE"/>
<path d="M1632.45 342.154C1649.51 342.154 1666.56 342.154 1684.14 342.154C1688.21 346.22 1686.66 351.807 1686.68 357.22C1686.67 360.003 1686.67 360.003 1686.66 362.844C1686.66 364.8 1686.66 366.757 1686.66 368.773C1686.67 375.381 1686.65 381.989 1686.64 388.597C1686.64 393.313 1686.64 398.029 1686.64 402.746C1686.64 415.593 1686.63 428.44 1686.62 441.287C1686.6 454.697 1686.6 468.106 1686.6 481.516C1686.59 506.929 1686.57 532.342 1686.55 557.755C1686.52 586.679 1686.51 615.602 1686.5 644.526C1686.48 704.042 1686.44 763.557 1686.39 823.073C1668.59 823.073 1650.79 823.073 1632.45 823.073C1632.45 664.37 1632.45 505.666 1632.45 342.154Z" fill="#FAFAFA"/>
<path d="M767.142 728.688C795.326 728.688 823.51 728.688 852.548 728.688C852.548 819.163 852.548 909.639 852.548 1002.86C824.364 1002.86 796.18 1002.86 767.142 1002.86C767.142 912.381 767.142 821.905 767.142 728.688Z" fill="#0730FF"/>
<path d="M857.043 1400.63C931.212 1400.63 1005.38 1400.63 1081.8 1400.63C1081.8 1426.58 1081.8 1452.54 1081.8 1479.28C1007.63 1479.28 933.459 1479.28 857.043 1479.28C857.043 1453.33 857.043 1427.37 857.043 1400.63Z" fill="#F8F8F8"/>
<path d="M609.813 1400.63C683.982 1400.63 758.151 1400.63 834.568 1400.63C834.568 1426.58 834.568 1452.54 834.568 1479.28C760.399 1479.28 686.23 1479.28 609.813 1479.28C609.813 1453.33 609.813 1427.37 609.813 1400.63Z" fill="#F8F8F8"/>
<path d="M859.291 1297.25C931.977 1297.25 1004.66 1297.25 1079.55 1297.25C1079.55 1323.21 1079.55 1349.16 1079.55 1375.91C1006.86 1375.91 934.179 1375.91 859.291 1375.91C859.291 1349.95 859.291 1323.99 859.291 1297.25Z" fill="#FCFCFC"/>
<path d="M612.061 1297.25C684.746 1297.25 757.432 1297.25 832.32 1297.25C832.32 1323.21 832.32 1349.16 832.32 1375.91C759.634 1375.91 686.949 1375.91 612.061 1375.91C612.061 1349.95 612.061 1323.99 612.061 1297.25Z" fill="#FCFDFD"/>
<path d="M859.291 1504C931.977 1504 1004.66 1504 1079.55 1504C1079.55 1529.22 1079.55 1554.43 1079.55 1580.41C1006.86 1580.41 934.179 1580.41 859.291 1580.41C859.291 1555.19 859.291 1529.98 859.291 1504Z" fill="#FEFEFE"/>
<path d="M612.061 1504C684.746 1504 757.432 1504 832.32 1504C832.32 1529.22 832.32 1554.43 832.32 1580.41C759.634 1580.41 686.949 1580.41 612.061 1580.41C612.061 1555.19 612.061 1529.98 612.061 1504Z" fill="#FEFEFE"/>
<path d="M859.291 1196.12C931.977 1196.12 1004.66 1196.12 1079.55 1196.12C1079.55 1221.34 1079.55 1246.55 1079.55 1272.53C1006.86 1272.53 934.179 1272.53 859.291 1272.53C859.291 1247.32 859.291 1222.1 859.291 1196.12Z" fill="#FDFDFD"/>
<path d="M612.061 1196.12C684.746 1196.12 757.432 1196.12 832.32 1196.12C832.32 1221.34 832.32 1246.55 832.32 1272.53C759.634 1272.53 686.949 1272.53 612.061 1272.53C612.061 1247.32 612.061 1222.1 612.061 1196.12Z" fill="#FDFDFD"/>
<path d="M1104.27 1400.63C1151.74 1400.63 1199.21 1400.63 1248.12 1400.63C1248.12 1426.58 1248.12 1452.54 1248.12 1479.28C1200.65 1479.28 1153.18 1479.28 1104.27 1479.28C1104.27 1453.33 1104.27 1427.37 1104.27 1400.63Z" fill="#F9FAFA"/>
<path d="M1104.27 1297.25C1151.74 1297.25 1199.21 1297.25 1248.12 1297.25C1248.12 1323.21 1248.12 1349.16 1248.12 1375.91C1200.65 1375.91 1153.18 1375.91 1104.27 1375.91C1104.27 1349.95 1104.27 1323.99 1104.27 1297.25Z" fill="#FBFBFB"/>
<path d="M1104.27 1504C1151.74 1504 1199.21 1504 1248.12 1504C1248.12 1529.22 1248.12 1554.43 1248.12 1580.41C1200.65 1580.41 1153.18 1580.41 1104.27 1580.41C1104.27 1555.19 1104.27 1529.98 1104.27 1504Z" fill="#FDFDFD"/>
<path d="M1104.27 1196.12C1151.74 1196.12 1199.21 1196.12 1248.12 1196.12C1248.12 1221.34 1248.12 1246.55 1248.12 1272.53C1200.65 1272.53 1153.18 1272.53 1104.27 1272.53C1104.27 1247.32 1104.27 1222.1 1104.27 1196.12Z" fill="#FCFCFC"/>
<path d="M1655.84 1433C1658.17 1433 1658.17 1433 1660.54 1433C1663.8 1433.01 1667.06 1433.05 1670.32 1433.12C1675.28 1433.21 1680.25 1433.21 1685.21 1433.19C1712.29 1433.39 1712.29 1433.39 1722.35 1441.08C1727.51 1448.82 1727.42 1451.82 1727.44 1460.94C1727.45 1464.8 1727.45 1464.8 1727.46 1468.74C1727.44 1471.43 1727.42 1474.12 1727.4 1476.89C1727.43 1480.91 1727.43 1480.91 1727.46 1485.02C1727.45 1487.59 1727.45 1490.17 1727.44 1492.83C1727.43 1495.18 1727.43 1497.54 1727.42 1499.97C1726.83 1506.4 1726.05 1509.98 1722.35 1515.24C1714.49 1521.11 1705.5 1520.46 1696.08 1520.49C1693.59 1520.51 1693.59 1520.51 1691.04 1520.53C1687.54 1520.55 1684.03 1520.56 1680.52 1520.56C1675.17 1520.57 1669.81 1520.66 1664.46 1520.74C1661.04 1520.75 1657.63 1520.76 1654.22 1520.77C1652.62 1520.8 1651.03 1520.83 1649.38 1520.86C1641.65 1520.79 1637.66 1520.3 1631.51 1515.45C1622.76 1503.86 1624.93 1490.36 1624.72 1476.33C1624.62 1473.55 1624.51 1470.77 1624.41 1467.91C1624.38 1465.23 1624.34 1462.55 1624.31 1459.78C1624.25 1457.33 1624.19 1454.87 1624.14 1452.34C1625.93 1444.6 1628.8 1441.12 1635.21 1436.43C1642.04 1432.84 1648.22 1432.96 1655.84 1433Z" fill="#0029F9"/>
<path d="M1534.49 1433.67C1539.54 1433.63 1544.57 1433.53 1549.62 1433.43C1552.84 1433.41 1556.06 1433.39 1559.29 1433.38C1562.22 1433.34 1565.14 1433.31 1568.16 1433.28C1577.59 1434.51 1582.41 1437.39 1589.74 1443.32C1594.59 1453.02 1592.51 1465.96 1592.55 1476.61C1592.6 1479.28 1592.64 1481.96 1592.69 1484.71C1592.71 1488.58 1592.71 1488.58 1592.73 1492.53C1592.76 1496.07 1592.76 1496.07 1592.79 1499.68C1591.87 1507.21 1589.72 1511.41 1585.25 1517.48C1574.72 1522.75 1559.11 1520.53 1547.42 1520.64C1543.71 1520.69 1540.01 1520.77 1536.3 1520.87C1530.94 1521.02 1525.59 1521.08 1520.24 1521.13C1518.59 1521.19 1516.94 1521.25 1515.24 1521.32C1505.93 1521.28 1502.44 1520.05 1495.43 1513.76C1490.57 1505.79 1489.41 1501.76 1489.36 1492.54C1489.34 1490 1489.33 1487.46 1489.31 1484.84C1489.38 1480.91 1489.38 1480.91 1489.45 1476.89C1489.4 1474.26 1489.36 1471.63 1489.31 1468.92C1489.44 1447.53 1489.44 1447.53 1496.42 1440.52C1498.29 1439.22 1500.16 1437.92 1502.09 1436.58C1508.17 1430.5 1525.73 1433.72 1534.49 1433.67Z" fill="#0029F9"/>
<path d="M1386.06 1549.86C1388.38 1549.86 1388.38 1549.86 1390.74 1549.86C1393.99 1549.87 1397.24 1549.91 1400.49 1549.98C1405.43 1550.07 1410.37 1550.07 1415.31 1550.05C1442.36 1550.25 1442.36 1550.25 1454.89 1557.94C1459.88 1567.91 1457.75 1581.39 1457.84 1592.35C1457.9 1595.13 1457.97 1597.91 1458.04 1600.77C1458.06 1603.45 1458.07 1606.13 1458.09 1608.89C1458.13 1611.35 1458.16 1613.8 1458.19 1616.33C1456.89 1624.67 1453.95 1628.35 1448.15 1634.34C1438.06 1639.38 1423.44 1637.29 1412.24 1637.38C1408.75 1637.41 1405.26 1637.48 1401.77 1637.56C1396.73 1637.69 1391.69 1637.73 1386.65 1637.77C1385.1 1637.82 1383.55 1637.87 1381.95 1637.92C1373.2 1637.88 1369.77 1636.83 1362.93 1631.18C1353.32 1619.23 1355.25 1606.93 1355.01 1592.07C1354.86 1588.06 1354.86 1588.06 1354.7 1583.97C1354.67 1581.39 1354.64 1578.81 1354.6 1576.15C1354.55 1573.79 1354.49 1571.43 1354.43 1569C1356.24 1561.4 1359.23 1557.93 1365.5 1553.3C1372.31 1549.7 1378.46 1549.82 1386.06 1549.86Z" fill="#0029FA"/>
<path d="M1509.82 1319.21C1513.13 1319.22 1516.43 1319.24 1519.74 1319.29C1521.48 1319.29 1523.21 1319.3 1525.01 1319.31C1530.57 1319.33 1536.14 1319.39 1541.7 1319.44C1545.47 1319.47 1549.24 1319.49 1553.01 1319.51C1562.26 1319.56 1571.51 1319.63 1580.75 1319.73C1580.75 1321.21 1580.75 1322.69 1580.75 1324.22C1582.19 1324.87 1583.63 1325.52 1585.11 1326.19C1589.74 1328.71 1589.74 1328.71 1591.99 1333.21C1592.66 1342.79 1592.62 1352.4 1592.69 1362C1592.76 1364.67 1592.82 1367.35 1592.89 1370.1C1592.91 1372.68 1592.93 1375.26 1592.95 1377.92C1592.98 1380.28 1593.01 1382.64 1593.05 1385.07C1591.73 1393.26 1588.69 1396.96 1583 1402.87C1576.2 1406.27 1569.13 1405.58 1561.67 1405.66C1559.16 1405.68 1559.16 1405.68 1556.61 1405.71C1553.08 1405.74 1549.54 1405.77 1546.01 1405.79C1540.61 1405.82 1535.22 1405.92 1529.82 1406.02C1526.39 1406.04 1522.96 1406.06 1519.52 1406.08C1517.91 1406.12 1516.3 1406.16 1514.64 1406.2C1506.97 1406.16 1502.84 1405.69 1496.64 1400.99C1488.35 1389.63 1490.35 1376.17 1490.29 1362.7C1490.24 1360.26 1490.2 1357.81 1490.15 1355.29C1490.14 1352.92 1490.13 1350.55 1490.11 1348.11C1490.09 1345.96 1490.07 1343.8 1490.05 1341.58C1491.62 1329.59 1497.41 1320.03 1509.82 1319.21Z" fill="#5EA4DE"/>
<path d="M1789.04 1664.89C1791.61 1664.85 1791.61 1664.85 1794.24 1664.81C1797.86 1664.77 1801.49 1664.74 1805.12 1664.73C1810.66 1664.68 1816.19 1664.54 1821.73 1664.4C1825.25 1664.37 1828.78 1664.35 1832.31 1664.33C1833.96 1664.28 1835.61 1664.22 1837.31 1664.16C1846.63 1664.24 1850.12 1665.5 1857.13 1671.81C1861.92 1679.66 1863.09 1683.44 1863.03 1692.5C1863.02 1694.94 1863.02 1697.38 1863.01 1699.9C1862.92 1703.67 1862.92 1703.67 1862.82 1707.52C1862.83 1711.31 1862.83 1711.31 1862.84 1715.17C1862.58 1736.66 1862.58 1736.66 1854.95 1746.71C1847.24 1752.47 1838.52 1751.96 1829.25 1752.04C1827.65 1752.06 1826.04 1752.08 1824.38 1752.1C1820.99 1752.13 1817.6 1752.15 1814.21 1752.16C1809.04 1752.19 1803.88 1752.3 1798.71 1752.41C1795.4 1752.43 1792.1 1752.45 1788.8 1752.46C1787.26 1752.5 1785.73 1752.55 1784.14 1752.59C1775.83 1752.51 1771.95 1751.32 1765.19 1746.35C1759.83 1738.97 1759.16 1735.5 1759.22 1726.48C1759.23 1723.93 1759.23 1721.38 1759.24 1718.76C1759.3 1716.12 1759.37 1713.47 1759.43 1710.75C1759.42 1706.79 1759.42 1706.79 1759.41 1702.75C1759.68 1679.21 1763.53 1665.19 1789.04 1664.89Z" fill="#0029FA"/>
<path d="M1401.44 1433.5C1406.26 1433.49 1411.07 1433.41 1415.89 1433.33C1418.98 1433.31 1422.07 1433.3 1425.16 1433.3C1429.35 1433.27 1429.35 1433.27 1433.62 1433.24C1442.83 1434.54 1447.69 1437.55 1454.89 1443.33C1459.89 1453.32 1457.85 1466.76 1457.98 1477.74C1458.11 1481.91 1458.11 1481.91 1458.23 1486.16C1458.26 1488.84 1458.29 1491.52 1458.31 1494.28C1458.38 1497.97 1458.38 1497.97 1458.45 1501.72C1456.64 1511.05 1453.55 1514.19 1445.9 1519.73C1439.47 1520.86 1434.4 1521.32 1427.99 1521.23C1426.29 1521.24 1424.58 1521.25 1422.83 1521.26C1419.24 1521.27 1415.65 1521.25 1412.06 1521.2C1406.58 1521.14 1401.11 1521.2 1395.64 1521.27C1392.14 1521.26 1388.64 1521.25 1385.14 1521.23C1382.7 1521.26 1382.7 1521.26 1380.21 1521.29C1371.69 1521.1 1367.5 1519.93 1360.58 1514.83C1355.38 1507.64 1354.6 1504.35 1354.66 1495.58C1354.67 1493.15 1354.67 1490.71 1354.68 1488.2C1354.74 1485.67 1354.81 1483.15 1354.87 1480.55C1354.86 1476.77 1354.86 1476.77 1354.86 1472.92C1355.14 1449.18 1355.14 1449.18 1362.74 1438.83C1373.95 1431.29 1388.44 1433.5 1401.44 1433.5Z" fill="#0029F9"/>
<path d="M1400.1 1145.97C1405.13 1145.98 1410.15 1145.93 1415.18 1145.87C1418.39 1145.87 1421.6 1145.86 1424.81 1145.87C1427.72 1145.86 1430.63 1145.85 1433.63 1145.85C1444.11 1146.97 1449.8 1150.58 1457.14 1157.92C1458.24 1167.8 1457.97 1177.76 1457.98 1187.7C1458.04 1190.46 1458.09 1193.22 1458.15 1196.06C1458.16 1200.07 1458.16 1200.07 1458.17 1204.16C1458.19 1206.61 1458.21 1209.05 1458.23 1211.57C1456.81 1220.72 1454.49 1225.31 1448.15 1232.08C1441.45 1233.46 1436.58 1233.93 1429.89 1233.79C1428.12 1233.8 1426.36 1233.81 1424.55 1233.81C1420.83 1233.81 1417.11 1233.78 1413.39 1233.71C1407.71 1233.62 1402.03 1233.67 1396.35 1233.73C1392.73 1233.71 1389.11 1233.68 1385.5 1233.65C1383.8 1233.67 1382.11 1233.68 1380.36 1233.7C1371.68 1233.47 1368.02 1232.85 1361.74 1226.64C1354.4 1214.45 1355.5 1203.85 1355.44 1189.8C1355.39 1187.34 1355.34 1184.89 1355.3 1182.35C1355.28 1179.98 1355.27 1177.6 1355.26 1175.15C1355.24 1172.98 1355.22 1170.81 1355.2 1168.57C1356.15 1161.23 1358.38 1157.11 1362.74 1151.18C1373.84 1143.78 1387.1 1145.93 1400.1 1145.97Z" fill="#ADCEF3"/>
<path d="M1518.85 1665.05C1520.51 1665.04 1522.17 1665.02 1523.89 1665C1527.41 1664.98 1530.93 1664.97 1534.46 1664.97C1539.83 1664.96 1545.2 1664.88 1550.57 1664.8C1554 1664.78 1557.42 1664.77 1560.85 1664.77C1563.25 1664.72 1563.25 1664.72 1565.7 1664.67C1576.59 1664.77 1582.1 1667.06 1589.74 1674.79C1594.75 1684.8 1592.61 1698.36 1592.69 1709.35C1592.76 1712.14 1592.82 1714.94 1592.89 1717.83C1592.91 1720.51 1592.93 1723.2 1592.95 1725.97C1592.98 1728.44 1593.01 1730.91 1593.05 1733.45C1591.74 1741.49 1589.37 1744.02 1583 1748.95C1571.33 1752.85 1558.82 1751.71 1546.6 1751.74C1541.73 1751.76 1536.87 1751.83 1532.01 1751.9C1528.9 1751.92 1525.79 1751.93 1522.68 1751.94C1518.46 1751.97 1518.46 1751.97 1514.15 1752C1505.91 1751.13 1501.8 1749.59 1495.35 1744.46C1488.04 1734.04 1490.11 1720.83 1490.15 1708.64C1490.11 1706.21 1490.08 1703.77 1490.04 1701.26C1490.04 1698.9 1490.04 1696.54 1490.03 1694.12C1490.03 1691.97 1490.02 1689.83 1490.01 1687.62C1492.5 1669.56 1502.39 1665.1 1518.85 1665.05Z" fill="#0029FA"/>
<path d="M1385.89 1664.97C1388.3 1664.94 1388.3 1664.94 1390.75 1664.91C1394.15 1664.88 1397.54 1664.86 1400.94 1664.85C1406.11 1664.82 1411.27 1664.71 1416.43 1664.6C1419.74 1664.58 1423.04 1664.56 1426.35 1664.55C1427.88 1664.51 1429.41 1664.46 1430.99 1664.42C1439.2 1664.49 1444.85 1665.83 1451.37 1670.63C1458.09 1678.09 1458.85 1681.06 1458.85 1690.94C1458.86 1693.58 1458.86 1696.22 1458.87 1698.94C1458.81 1701.68 1458.75 1704.42 1458.68 1707.24C1458.72 1709.97 1458.75 1712.7 1458.78 1715.51C1458.6 1735.36 1458.6 1735.36 1452.48 1745.25C1444.55 1752.42 1439.18 1753.08 1428.97 1752.76C1427.37 1752.75 1425.77 1752.75 1424.11 1752.75C1420.74 1752.73 1417.36 1752.67 1413.98 1752.59C1408.83 1752.47 1403.69 1752.45 1398.53 1752.45C1395.24 1752.42 1391.95 1752.38 1388.66 1752.33C1386.36 1752.32 1386.36 1752.32 1384.02 1752.31C1374.38 1752.02 1368.08 1750.51 1360.49 1744.46C1353.19 1734.04 1355.26 1720.83 1355.3 1708.64C1355.26 1706.21 1355.22 1703.77 1355.19 1701.26C1355.18 1698.9 1355.18 1696.54 1355.18 1694.12C1355.17 1691.97 1355.17 1689.83 1355.16 1687.62C1356.16 1680.35 1358.42 1676.2 1362.74 1670.3C1370.75 1664.96 1376.63 1665.04 1385.89 1664.97Z" fill="#0029FA"/>
<path d="M1788.72 1549.86C1790.32 1549.86 1791.93 1549.86 1793.58 1549.86C1796.96 1549.87 1800.33 1549.91 1803.71 1549.98C1808.86 1550.07 1814.01 1550.07 1819.16 1550.05C1822.45 1550.08 1825.74 1550.1 1829.03 1550.14C1831.33 1550.14 1831.33 1550.14 1833.67 1550.14C1843.35 1550.38 1849.51 1552.01 1857.2 1557.93C1864.28 1568.55 1862.61 1579.71 1862.68 1592.21C1862.75 1594.72 1862.83 1597.24 1862.9 1599.83C1862.92 1602.29 1862.93 1604.74 1862.95 1607.27C1862.98 1609.5 1863.01 1611.73 1863.04 1614.02C1861.18 1623.45 1857.71 1630.19 1850.46 1636.59C1843.64 1638.16 1839.24 1638.66 1832.47 1638.44C1830.76 1638.44 1829.05 1638.44 1827.29 1638.44C1823.69 1638.42 1820.09 1638.36 1816.49 1638.27C1810.99 1638.14 1805.5 1638.13 1800 1638.15C1796.49 1638.11 1792.99 1638.07 1789.48 1638.02C1787.84 1638.02 1786.2 1638.01 1784.52 1638.01C1776.83 1637.76 1772.52 1637.14 1766.33 1632.43C1757.72 1620.65 1759.88 1605.89 1759.71 1591.93C1759.59 1587.93 1759.59 1587.93 1759.46 1583.86C1759.43 1581.29 1759.41 1578.72 1759.38 1576.07C1759.33 1573.73 1759.29 1571.38 1759.24 1568.96C1762.49 1552.79 1773.89 1549.5 1788.72 1549.86Z" fill="#0029FA"/>
<path d="M1367.24 1319.72C1393.2 1319.72 1419.15 1319.72 1445.9 1319.72C1445.9 1321.21 1445.9 1322.69 1445.9 1324.22C1447.34 1324.91 1448.77 1325.61 1450.25 1326.33C1454.89 1328.71 1454.89 1328.71 1457.14 1330.96C1457.84 1340.87 1457.76 1350.81 1457.84 1360.74C1457.91 1363.53 1457.97 1366.32 1458.04 1369.19C1458.06 1371.88 1458.08 1374.57 1458.09 1377.35C1458.13 1379.81 1458.16 1382.28 1458.19 1384.83C1456.9 1393.19 1453.97 1396.86 1448.15 1402.87C1437.83 1408.03 1422.62 1405.82 1411.16 1405.91C1407.54 1405.95 1403.93 1406.01 1400.32 1406.09C1395.1 1406.22 1389.89 1406.26 1384.67 1406.3C1383.06 1406.35 1381.45 1406.4 1379.79 1406.45C1371.25 1406.42 1367.95 1405.83 1361.79 1399.71C1354.38 1387.53 1355.5 1376.91 1355.44 1362.84C1355.39 1360.39 1355.34 1357.93 1355.3 1355.4C1355.28 1353.02 1355.27 1350.64 1355.26 1348.19C1355.24 1346.02 1355.22 1343.85 1355.2 1341.61C1356.14 1334.34 1358.37 1330.07 1362.74 1324.22C1364.22 1324.22 1365.71 1324.22 1367.24 1324.22C1367.24 1322.74 1367.24 1321.25 1367.24 1319.72Z" fill="#F9F9F9"/>
<path d="M1520 1781.17C1521.7 1781.16 1523.4 1781.15 1525.16 1781.14C1528.75 1781.13 1532.34 1781.15 1535.93 1781.2C1541.41 1781.26 1546.87 1781.2 1552.35 1781.13C1555.85 1781.14 1559.34 1781.15 1562.84 1781.17C1564.47 1781.15 1566.1 1781.13 1567.77 1781.1C1576.27 1781.3 1580.49 1782.47 1587.4 1787.54C1592.67 1794.85 1593.43 1798.39 1593.48 1807.31C1593.5 1811.12 1593.5 1811.12 1593.53 1815C1593.48 1817.63 1593.44 1820.27 1593.39 1822.98C1593.44 1825.6 1593.48 1828.22 1593.53 1830.93C1593.4 1852.34 1593.4 1852.34 1586.56 1860.77C1574.82 1870.97 1561.59 1868.56 1546.77 1868.6C1541.88 1868.62 1537 1868.69 1532.12 1868.77C1529 1868.78 1525.88 1868.79 1522.76 1868.8C1518.52 1868.83 1518.52 1868.83 1514.18 1868.86C1505.87 1867.99 1501.77 1866.62 1495.35 1861.32C1488.59 1849.14 1489.94 1835.54 1489.87 1821.99C1489.79 1819.46 1489.72 1816.92 1489.64 1814.31C1489.63 1811.86 1489.61 1809.42 1489.59 1806.89C1489.56 1804.67 1489.53 1802.45 1489.5 1800.16C1493.05 1783.71 1505.03 1780.96 1520 1781.17Z" fill="#0029FA"/>
<path d="M1385.15 1780.95C1386.85 1780.95 1388.55 1780.94 1390.31 1780.93C1393.9 1780.93 1397.49 1780.97 1401.08 1781.03C1406.55 1781.12 1412.02 1781.08 1417.5 1781.02C1421 1781.04 1424.49 1781.06 1427.99 1781.09C1429.62 1781.08 1431.24 1781.06 1432.92 1781.05C1441.41 1781.28 1445.65 1782.49 1452.56 1787.54C1457.86 1794.9 1458.53 1798.41 1458.47 1807.39C1458.47 1809.94 1458.46 1812.48 1458.45 1815.11C1458.36 1819.07 1458.36 1819.07 1458.26 1823.12C1458.27 1827.08 1458.27 1827.08 1458.28 1831.12C1458.02 1853.59 1458.02 1853.59 1450.4 1863.57C1439.68 1871.48 1424.34 1868.9 1411.58 1868.9C1406.73 1868.91 1401.89 1868.99 1397.05 1869.07C1393.95 1869.09 1390.85 1869.09 1387.75 1869.1C1383.55 1869.13 1383.55 1869.13 1379.26 1869.15C1370.45 1867.88 1366.67 1865.38 1360.49 1859.07C1360.49 1857.59 1360.49 1856.11 1360.49 1854.58C1359.01 1854.58 1357.53 1854.58 1356 1854.58C1355.67 1845.12 1355.47 1835.67 1355.3 1826.21C1355.2 1823.53 1355.11 1820.86 1355.01 1818.1C1354.97 1815.51 1354.94 1812.92 1354.9 1810.25C1354.84 1807.87 1354.78 1805.49 1354.72 1803.04C1357.97 1785.52 1368.7 1780.61 1385.15 1780.95Z" fill="#0029F9"/>
<path d="M1654.19 1664.89C1656.76 1664.85 1656.76 1664.85 1659.38 1664.81C1663.01 1664.77 1666.64 1664.74 1670.27 1664.73C1675.81 1664.68 1681.34 1664.54 1686.87 1664.4C1690.4 1664.37 1693.93 1664.35 1697.46 1664.33C1699.11 1664.28 1700.75 1664.22 1702.45 1664.16C1711.78 1664.24 1715.27 1665.5 1722.27 1671.81C1727.07 1679.66 1728.24 1683.44 1728.18 1692.5C1728.17 1694.94 1728.17 1697.38 1728.16 1699.9C1728.06 1703.67 1728.06 1703.67 1727.97 1707.52C1727.97 1711.31 1727.97 1711.31 1727.98 1715.17C1727.73 1736.66 1727.73 1736.66 1720.1 1746.71C1709.38 1754.63 1694.04 1751.95 1681.28 1751.91C1676.44 1751.9 1671.6 1751.96 1666.75 1752.01C1663.65 1752.02 1660.56 1752.02 1657.46 1752.02C1654.66 1752.03 1651.85 1752.03 1648.96 1752.04C1640.77 1751.13 1636.63 1749.56 1630.2 1744.46C1622.89 1734.04 1624.96 1720.83 1625 1708.64C1624.96 1706.21 1624.93 1703.77 1624.89 1701.26C1624.89 1698.9 1624.89 1696.54 1624.89 1694.12C1624.88 1691.97 1624.87 1689.83 1624.87 1687.62C1627.39 1669.3 1637.57 1665.08 1654.19 1664.89Z" fill="#0029FA"/>
<path d="M1804.66 1433.63C1809.69 1433.63 1814.71 1433.58 1819.74 1433.52C1822.95 1433.52 1826.16 1433.52 1829.37 1433.52C1832.28 1433.51 1835.19 1433.51 1838.19 1433.5C1846.53 1434.4 1850.68 1435.87 1857.2 1441.08C1864.51 1451.5 1862.43 1464.7 1862.4 1476.89C1862.43 1479.33 1862.47 1481.77 1862.51 1484.28C1862.51 1486.64 1862.51 1488.99 1862.51 1491.42C1862.52 1493.57 1862.53 1495.71 1862.53 1497.92C1861.53 1505.19 1859.27 1509.34 1854.95 1515.24C1846.77 1520.7 1840.62 1520.42 1831.15 1520.41C1829.49 1520.42 1827.82 1520.43 1826.11 1520.44C1822.59 1520.45 1819.07 1520.45 1815.55 1520.44C1810.17 1520.43 1804.8 1520.49 1799.42 1520.54C1796 1520.55 1792.57 1520.55 1789.15 1520.55C1787.55 1520.57 1785.94 1520.59 1784.29 1520.61C1777.34 1520.55 1772.49 1520.12 1766.35 1516.73C1757.1 1506.98 1760.05 1490.97 1759.99 1478.44C1759.95 1475.88 1759.9 1473.33 1759.85 1470.7C1759.84 1468.23 1759.83 1465.76 1759.82 1463.22C1759.8 1460.96 1759.78 1458.71 1759.76 1456.39C1760.7 1448.95 1762.87 1444.84 1767.3 1438.83C1778.4 1431.43 1791.66 1433.59 1804.66 1433.63Z" fill="#0029FA"/>
<path d="M1671.1 1550.65C1675.96 1550.63 1680.82 1550.56 1685.69 1550.49C1688.79 1550.48 1691.9 1550.47 1695.01 1550.46C1699.23 1550.43 1699.23 1550.43 1703.55 1550.39C1711.74 1551.26 1715.85 1552.96 1722.35 1557.94C1729.43 1568.56 1727.76 1579.72 1727.83 1592.21C1727.9 1594.72 1727.97 1597.24 1728.05 1599.84C1728.07 1602.29 1728.08 1604.74 1728.1 1607.27C1728.13 1609.5 1728.16 1611.73 1728.19 1614.02C1726.33 1623.45 1722.86 1630.18 1715.61 1636.59C1708.8 1638.19 1704.4 1638.71 1697.62 1638.52C1695.91 1638.53 1694.2 1638.53 1692.44 1638.54C1688.84 1638.53 1685.24 1638.48 1681.64 1638.39C1676.14 1638.28 1670.65 1638.3 1665.15 1638.35C1661.64 1638.32 1658.14 1638.29 1654.63 1638.24C1652.99 1638.25 1651.35 1638.26 1649.67 1638.27C1641.12 1637.99 1637.63 1637.28 1631.48 1631.15C1623.74 1618.44 1625.12 1606.59 1625 1591.93C1624.94 1589.23 1624.87 1586.54 1624.8 1583.77C1624.79 1581.18 1624.77 1578.6 1624.75 1575.93C1624.71 1573.56 1624.68 1571.19 1624.65 1568.74C1625.97 1560.85 1628.46 1558.31 1634.69 1553.44C1646.37 1549.55 1658.88 1550.69 1671.1 1550.65Z" fill="#0029FB"/>
<path d="M1536.41 1550.48C1541.26 1550.49 1546.1 1550.44 1550.94 1550.38C1554.04 1550.38 1557.14 1550.37 1560.23 1550.38C1563.04 1550.37 1565.84 1550.36 1568.73 1550.36C1579.03 1551.5 1584.76 1555.2 1591.99 1562.43C1593.03 1571.99 1592.72 1581.62 1592.69 1591.22C1592.73 1593.9 1592.76 1596.57 1592.8 1599.32C1592.8 1601.9 1592.8 1604.48 1592.81 1607.14C1592.81 1609.5 1592.82 1611.86 1592.83 1614.29C1591.6 1623.95 1587.54 1629.8 1580.75 1636.59C1574.92 1637.18 1569.34 1637.49 1563.5 1637.58C1561.79 1637.61 1560.07 1637.64 1558.31 1637.68C1554.68 1637.73 1551.05 1637.77 1547.42 1637.79C1541.88 1637.85 1536.35 1638.02 1530.82 1638.19C1527.29 1638.23 1523.76 1638.26 1520.23 1638.28C1518.59 1638.35 1516.94 1638.42 1515.24 1638.49C1508.62 1638.43 1503.57 1637.9 1498.51 1633.43C1492.17 1625.23 1489.44 1618.43 1489.52 1607.92C1489.52 1605.59 1489.53 1603.26 1489.53 1600.85C1489.6 1598.46 1489.66 1596.07 1489.73 1593.61C1489.72 1591.2 1489.71 1588.8 1489.71 1586.32C1489.86 1574.04 1489.96 1565.8 1497.59 1555.69C1508.31 1547.77 1523.65 1550.44 1536.41 1550.48Z" fill="#0029FB"/>
<path d="M1797.1 1319C1798.75 1319.01 1800.41 1319.01 1802.12 1319.01C1807.14 1319.02 1812.16 1318.97 1817.18 1318.91C1820.4 1318.91 1823.61 1318.91 1826.82 1318.91C1829.74 1318.9 1832.65 1318.89 1835.65 1318.89C1844.4 1319.8 1849.78 1321.81 1857.2 1326.47C1864.31 1337.14 1862.43 1348.47 1862.4 1361.02C1862.43 1363.57 1862.47 1366.13 1862.51 1368.76C1862.51 1371.23 1862.51 1373.7 1862.51 1376.24C1862.52 1378.49 1862.53 1380.74 1862.53 1383.06C1861.56 1390.42 1859.39 1394.72 1854.95 1400.63C1853.47 1400.63 1851.99 1400.63 1850.46 1400.63C1850.46 1402.11 1850.46 1403.59 1850.46 1405.12C1839.06 1405.34 1827.66 1405.51 1816.26 1405.62C1812.38 1405.66 1808.5 1405.72 1804.62 1405.8C1799.05 1405.91 1793.48 1405.96 1787.9 1406C1786.17 1406.05 1784.43 1406.09 1782.65 1406.14C1770.63 1406.14 1770.63 1406.14 1765.17 1400.99C1759.09 1388.49 1760.06 1376.34 1759.99 1362.7C1759.95 1360.26 1759.9 1357.81 1759.85 1355.29C1759.84 1352.92 1759.83 1350.55 1759.82 1348.11C1759.8 1345.96 1759.78 1343.8 1759.75 1341.58C1762.76 1318.61 1777.95 1319.08 1797.1 1319Z" fill="#5EA4DE"/>
<path d="M1653.13 1318.97C1654.74 1318.95 1656.35 1318.94 1658 1318.92C1661.41 1318.9 1664.82 1318.89 1668.23 1318.89C1673.41 1318.88 1678.59 1318.8 1683.78 1318.71C1687.1 1318.7 1690.41 1318.69 1693.73 1318.69C1695.27 1318.65 1696.8 1318.62 1698.39 1318.59C1709.6 1318.69 1715.96 1321.7 1724.6 1328.71C1729.31 1338.15 1727.36 1350.51 1727.4 1360.88C1727.45 1363.44 1727.5 1366.01 1727.55 1368.65C1727.56 1372.37 1727.56 1372.37 1727.58 1376.16C1727.6 1378.43 1727.62 1380.69 1727.64 1383.03C1726.71 1390.42 1724.56 1394.7 1720.1 1400.63C1718.62 1400.63 1717.13 1400.63 1715.61 1400.63C1715.61 1402.11 1715.61 1403.59 1715.61 1405.12C1704.57 1405.34 1693.53 1405.51 1682.49 1405.61C1678.74 1405.66 1674.98 1405.72 1671.23 1405.8C1665.83 1405.91 1660.43 1405.96 1655.03 1406C1653.35 1406.04 1651.68 1406.09 1649.95 1406.14C1642.13 1406.14 1637.79 1405.76 1631.46 1400.99C1623.23 1389.59 1625.2 1376.17 1625.14 1362.7C1625.1 1360.25 1625.05 1357.81 1625 1355.28C1624.99 1352.92 1624.98 1350.55 1624.97 1348.11C1624.94 1345.95 1624.92 1343.8 1624.9 1341.57C1627.22 1323.84 1636.91 1319.02 1653.13 1318.97Z" fill="#5EA5DE"/>
<path d="M1804.54 1145.85C1809.54 1145.84 1814.54 1145.76 1819.54 1145.67C1822.74 1145.66 1825.95 1145.65 1829.15 1145.65C1833.5 1145.62 1833.5 1145.62 1837.94 1145.59C1847.3 1146.87 1852.15 1149.78 1859.45 1155.67C1864.17 1165.11 1862.21 1177.47 1862.26 1187.84C1862.3 1190.4 1862.35 1192.97 1862.4 1195.61C1862.42 1199.33 1862.42 1199.33 1862.43 1203.12C1862.45 1205.39 1862.47 1207.65 1862.5 1209.99C1861.56 1217.45 1859.4 1221.56 1854.95 1227.59C1846.78 1233.03 1840.61 1232.81 1831.15 1232.84C1829.49 1232.85 1827.82 1232.86 1826.11 1232.88C1822.59 1232.9 1819.07 1232.91 1815.55 1232.91C1810.17 1232.92 1804.8 1233 1799.42 1233.09C1796 1233.1 1792.57 1233.11 1789.15 1233.12C1786.74 1233.16 1786.74 1233.16 1784.29 1233.21C1776.64 1233.14 1772.52 1232.63 1766.35 1227.94C1758.05 1216.59 1760.06 1203.12 1759.99 1189.66C1759.95 1187.21 1759.9 1184.77 1759.85 1182.24C1759.84 1179.88 1759.83 1177.51 1759.82 1175.07C1759.8 1172.91 1759.78 1170.76 1759.75 1168.53C1760.71 1161.22 1762.96 1157.1 1767.3 1151.18C1778.38 1143.79 1791.56 1145.85 1804.54 1145.85Z" fill="#ADCEF3"/>
<path d="M1788.63 1782.29C1791.14 1782.28 1791.14 1782.28 1793.69 1782.27C1797.22 1782.25 1800.76 1782.25 1804.29 1782.25C1809.68 1782.24 1815.08 1782.2 1820.48 1782.16C1823.91 1782.15 1827.34 1782.15 1830.77 1782.15C1832.39 1782.13 1834 1782.12 1835.66 1782.1C1850.57 1782.17 1850.57 1782.17 1857.2 1787.16C1864.45 1797.66 1862.43 1810.75 1862.4 1822.98C1862.43 1825.41 1862.47 1827.85 1862.51 1830.36C1862.51 1832.72 1862.51 1835.08 1862.51 1837.51C1862.52 1839.65 1862.53 1841.79 1862.53 1844C1861.2 1853.72 1857.55 1859.26 1849.91 1865.33C1838.47 1870.38 1826.02 1869.23 1813.72 1869.19C1808.89 1869.19 1804.07 1869.28 1799.25 1869.38C1796.16 1869.39 1793.07 1869.4 1789.99 1869.4C1785.8 1869.42 1785.8 1869.42 1781.54 1869.45C1772.07 1867.7 1768.81 1864.16 1762.8 1856.83C1758.09 1847.39 1760.04 1835.03 1759.99 1824.66C1759.95 1822.1 1759.9 1819.53 1759.85 1816.89C1759.84 1813.17 1759.84 1813.17 1759.82 1809.38C1759.79 1805.98 1759.79 1805.98 1759.76 1802.51C1760.69 1795.11 1762.92 1790.9 1767.3 1784.91C1774.1 1781.51 1781.17 1782.3 1788.63 1782.29Z" fill="#0029FA"/>
<path d="M1669.68 1145.85C1674.69 1145.84 1679.69 1145.76 1684.69 1145.67C1687.89 1145.66 1691.09 1145.65 1694.3 1145.65C1698.65 1145.62 1698.65 1145.62 1703.08 1145.59C1712.45 1146.87 1717.3 1149.78 1724.6 1155.67C1729.31 1165.11 1727.36 1177.47 1727.4 1187.84C1727.45 1190.4 1727.5 1192.97 1727.55 1195.61C1727.56 1199.33 1727.56 1199.33 1727.58 1203.12C1727.6 1205.39 1727.62 1207.65 1727.64 1209.99C1726.7 1217.45 1724.55 1221.56 1720.1 1227.59C1711.93 1233.03 1705.76 1232.81 1696.3 1232.84C1694.63 1232.85 1692.97 1232.86 1691.25 1232.88C1687.73 1232.9 1684.21 1232.91 1680.69 1232.91C1675.32 1232.92 1669.94 1233 1664.57 1233.09C1661.14 1233.1 1657.72 1233.11 1654.3 1233.12C1651.89 1233.16 1651.89 1233.16 1649.44 1233.21C1641.79 1233.14 1637.67 1232.63 1631.5 1227.94C1623.19 1216.59 1625.2 1203.12 1625.14 1189.66C1625.1 1187.21 1625.05 1184.77 1625 1182.24C1624.99 1179.88 1624.98 1177.51 1624.97 1175.07C1624.94 1172.91 1624.92 1170.76 1624.9 1168.53C1625.86 1161.22 1628.1 1157.1 1632.45 1151.18C1643.53 1143.79 1656.71 1145.85 1669.68 1145.85Z" fill="#AECEF3"/>
<path d="M1534.83 1145.85C1539.84 1145.84 1544.83 1145.76 1549.84 1145.67C1553.04 1145.66 1556.24 1145.65 1559.44 1145.65C1563.79 1145.62 1563.79 1145.62 1568.23 1145.59C1577.6 1146.87 1582.45 1149.78 1589.74 1155.67C1594.46 1165.11 1592.51 1177.47 1592.55 1187.84C1592.6 1190.4 1592.65 1192.97 1592.69 1195.61C1592.71 1199.33 1592.71 1199.33 1592.73 1203.12C1592.75 1205.39 1592.77 1207.65 1592.79 1209.99C1591.85 1217.45 1589.7 1221.56 1585.25 1227.59C1577.09 1233.03 1570.89 1232.84 1561.45 1232.91C1559.78 1232.93 1558.12 1232.95 1556.4 1232.98C1552.88 1233.01 1549.36 1233.03 1545.84 1233.04C1540.46 1233.06 1535.09 1233.17 1529.71 1233.29C1526.29 1233.31 1522.87 1233.32 1519.45 1233.34C1517.04 1233.4 1517.04 1233.4 1514.59 1233.47C1506.07 1233.39 1502.78 1232.77 1496.65 1226.66C1489.22 1214.49 1490.35 1203.87 1490.29 1189.8C1490.24 1187.34 1490.2 1184.89 1490.15 1182.35C1490.14 1179.98 1490.13 1177.6 1490.11 1175.15C1490.09 1172.98 1490.07 1170.81 1490.05 1168.57C1491 1161.23 1493.23 1157.11 1497.59 1151.18C1508.67 1143.79 1521.86 1145.85 1534.83 1145.85Z" fill="#5EA5DF"/>
<path d="M1654.85 1781.17C1656.55 1781.16 1658.26 1781.15 1660.01 1781.14C1663.6 1781.13 1667.19 1781.15 1670.78 1781.2C1676.26 1781.26 1681.72 1781.2 1687.2 1781.13C1690.7 1781.14 1694.2 1781.15 1697.69 1781.17C1699.32 1781.15 1700.95 1781.13 1702.63 1781.1C1711.12 1781.3 1715.34 1782.47 1722.25 1787.54C1727.52 1794.85 1728.28 1798.39 1728.33 1807.31C1728.36 1811.12 1728.36 1811.12 1728.38 1815C1728.33 1817.63 1728.29 1820.27 1728.25 1822.98C1728.29 1825.6 1728.33 1828.22 1728.38 1830.93C1728.36 1833.47 1728.35 1836.01 1728.33 1838.63C1728.32 1842.09 1728.32 1842.09 1728.3 1845.62C1726.25 1855.06 1722.76 1859.38 1715.6 1865.82C1708.97 1867.14 1704.21 1867.62 1697.61 1867.45C1695.91 1867.45 1694.2 1867.45 1692.44 1867.46C1688.84 1867.44 1685.24 1867.4 1681.64 1867.33C1676.14 1867.22 1670.65 1867.23 1665.14 1867.26C1661.64 1867.24 1658.13 1867.21 1654.63 1867.17C1652.17 1867.17 1652.17 1867.17 1649.66 1867.18C1641.88 1866.96 1637.68 1866.4 1631.48 1861.52C1622.93 1850.15 1625.02 1837.29 1624.86 1823.54C1624.78 1820.87 1624.69 1818.19 1624.6 1815.44C1624.58 1812.86 1624.55 1810.28 1624.53 1807.62C1624.48 1805.26 1624.44 1802.9 1624.39 1800.47C1627.72 1783.78 1639.69 1780.96 1654.85 1781.17Z" fill="#0029FC"/>
</svg>
