<svg width="1049" height="934" viewBox="0 0 1049 934" fill="none" xmlns="http://www.w3.org/2000/svg">
<path d="M181.324 71.252C349.294 71.252 517.264 71.252 690.324 71.252C690.324 83.132 690.324 95.012 690.324 107.252C702.204 107.252 714.084 107.252 726.324 107.252C726.324 118.802 726.324 130.352 726.324 142.252C737.544 142.252 748.764 142.252 760.324 142.252C760.324 216.172 760.324 290.092 760.324 366.252C793.984 366.252 827.644 366.252 862.324 366.252C871.435 370.808 871.435 370.808 874.324 375.252C874.682 375.798 875.041 376.343 875.41 376.905C876.743 380.326 876.601 383.678 876.581 387.296C876.585 388.117 876.588 388.938 876.592 389.784C876.601 392.553 876.597 395.322 876.592 398.092C876.595 400.09 876.6 402.088 876.605 404.086C876.618 409.592 876.617 415.097 876.615 420.602C876.615 426.534 876.626 432.466 876.635 438.398C876.652 450.026 876.657 461.653 876.658 473.281C876.659 482.73 876.663 492.179 876.67 501.628C876.672 504.347 876.673 507.065 876.675 509.784C876.676 510.798 876.676 510.798 876.676 511.832C876.689 530.846 876.697 549.86 876.696 568.874C876.696 569.592 876.696 570.309 876.696 571.048C876.695 574.682 876.695 578.317 876.695 581.952C876.695 583.035 876.695 583.035 876.695 584.139C876.695 585.599 876.695 587.059 876.695 588.519C876.693 611.231 876.708 633.942 876.736 656.654C876.767 682.163 876.784 707.672 876.782 733.181C876.782 735.901 876.782 738.621 876.782 741.34C876.782 742.345 876.782 742.345 876.782 743.37C876.781 753.483 876.792 763.596 876.808 773.708C876.826 785.21 876.831 796.712 876.817 808.214C876.811 814.085 876.811 819.955 876.828 825.825C876.844 831.198 876.841 836.57 876.823 841.943C876.82 843.888 876.824 845.833 876.835 847.778C876.849 850.42 876.839 853.062 876.822 855.704C876.832 856.46 876.842 857.216 876.852 857.995C876.771 864.041 875.065 869.353 870.842 873.82C866.749 877.368 863.645 878.376 858.349 878.386C857.316 878.391 856.282 878.395 855.218 878.4C854.079 878.399 852.94 878.399 851.767 878.399C850.559 878.403 849.352 878.406 848.109 878.41C844.752 878.419 841.396 878.424 838.039 878.427C834.422 878.431 830.804 878.44 827.186 878.449C818.447 878.469 809.708 878.479 800.969 878.488C796.855 878.492 792.741 878.497 788.627 878.503C774.954 878.52 761.281 878.534 747.608 878.541C744.059 878.543 740.511 878.545 736.963 878.547C736.081 878.548 735.199 878.548 734.29 878.549C719.997 878.557 705.704 878.582 691.41 878.615C676.74 878.648 662.07 878.666 647.4 878.669C639.162 878.671 630.923 878.68 622.685 878.705C615.67 878.727 608.655 878.735 601.64 878.725C598.061 878.721 594.482 878.723 590.902 878.742C587.022 878.763 583.143 878.753 579.263 878.74C578.131 878.751 576.998 878.762 575.832 878.773C569.832 878.724 565.89 878.541 561.324 874.252C560.452 872.858 559.583 871.462 558.716 870.064C556.847 867.469 555.892 866.417 552.793 865.514C549.525 865.224 546.342 865.197 543.062 865.252C541.192 865.236 541.192 865.236 539.284 865.219C535.831 865.197 532.38 865.21 528.927 865.239C525.201 865.261 521.475 865.237 517.749 865.219C511.296 865.193 504.843 865.197 498.39 865.221C489.06 865.255 479.731 865.245 470.401 865.224C455.263 865.192 440.126 865.195 424.989 865.221C410.285 865.246 395.581 865.254 380.877 865.24C379.971 865.239 379.064 865.238 378.131 865.237C373.583 865.233 369.035 865.228 364.488 865.223C326.767 865.181 289.046 865.2 251.324 865.252C251.324 854.032 251.324 842.812 251.324 831.252C239.774 831.252 228.224 831.252 216.324 831.252C216.324 819.372 216.324 807.492 216.324 795.252C204.774 795.252 193.224 795.252 181.324 795.252C181.324 556.332 181.324 317.412 181.324 71.252Z" fill="#1B2727"/>
<path d="M191.324 82.252C352.694 82.252 514.064 82.252 680.324 82.252C680.324 175.972 680.324 269.692 680.324 366.252C655.244 366.252 630.164 366.252 604.324 366.252C604.324 316.092 604.324 265.932 604.324 214.252C591.784 214.252 579.244 214.252 566.324 214.252C566.366 218.85 566.408 223.448 566.451 228.186C566.584 243.369 566.673 258.552 566.739 273.735C566.78 282.942 566.836 292.149 566.928 301.355C567.008 309.381 567.059 317.406 567.077 325.431C567.088 329.68 567.112 333.928 567.17 338.177C567.225 342.179 567.241 346.179 567.229 350.181C567.231 351.647 567.247 353.113 567.278 354.579C567.5 365.707 567.5 365.707 564.553 369.58C562.393 371.429 562.393 371.429 560.238 372.852C557.9 374.339 557.9 374.339 556.324 378.252C555.994 425.442 555.664 472.632 555.324 521.252C458.304 521.252 361.284 521.252 261.324 521.252C261.324 584.942 261.324 648.632 261.324 714.252C358.674 714.252 456.024 714.252 556.324 714.252C556.324 737.352 556.324 760.452 556.324 784.252C509.97 784.274 463.616 784.292 417.261 784.303C411.795 784.304 406.328 784.306 400.862 784.307C399.773 784.307 398.685 784.307 397.564 784.308C379.917 784.312 362.271 784.32 344.624 784.329C326.532 784.338 308.439 784.344 290.346 784.346C279.173 784.347 267.999 784.352 256.826 784.36C249.174 784.365 241.523 784.367 233.872 784.365C229.451 784.365 225.03 784.366 220.608 784.371C216.567 784.376 212.527 784.376 208.486 784.373C207.018 784.372 205.549 784.374 204.081 784.377C202.098 784.381 200.115 784.378 198.132 784.375C196.474 784.376 196.474 784.376 194.783 784.376C192.324 784.252 192.324 784.252 191.324 783.252C191.227 781.715 191.2 780.173 191.2 778.633C191.198 777.626 191.196 776.619 191.193 775.581C191.196 774.459 191.199 773.337 191.201 772.181C191.2 770.996 191.199 769.812 191.198 768.591C191.196 765.273 191.198 761.955 191.202 758.637C191.206 755.039 191.203 751.44 191.202 747.842C191.199 741.526 191.201 735.209 191.205 728.893C191.211 719.5 191.211 710.108 191.211 700.715C191.209 684.918 191.213 669.121 191.219 653.324C191.225 637.675 191.228 622.026 191.229 606.378C191.23 605.406 191.23 604.434 191.23 603.433C191.23 598.498 191.23 593.563 191.231 588.628C191.233 553.645 191.239 518.661 191.249 483.677C191.258 449.684 191.265 415.69 191.269 381.697C191.27 379.56 191.27 377.424 191.27 375.287C191.272 357.93 191.274 340.572 191.276 323.214C191.286 242.893 191.306 162.573 191.324 82.252Z" fill="#FDFDFD"/>
<path d="M180.324 71.252C180.654 71.252 180.984 71.252 181.324 71.252C181.324 310.172 181.324 549.092 181.324 795.252C192.874 795.252 204.424 795.252 216.324 795.252C216.324 807.132 216.324 819.012 216.324 831.252C227.874 831.252 239.424 831.252 251.324 831.252C251.324 842.472 251.324 853.692 251.324 865.252C255.117 865.232 258.91 865.212 262.818 865.191C297.595 865.012 332.372 864.878 367.15 864.792C371.707 864.781 376.265 864.769 380.822 864.758C381.73 864.755 382.637 864.753 383.572 864.75C398.266 864.711 412.959 864.64 427.653 864.558C442.728 864.473 457.804 864.423 472.879 864.405C482.183 864.393 491.486 864.354 500.79 864.281C507.168 864.233 513.546 864.219 519.925 864.23C523.607 864.236 527.286 864.227 530.967 864.179C534.96 864.127 538.949 864.145 542.941 864.17C544.685 864.13 544.685 864.13 546.464 864.09C554.202 864.219 554.202 864.219 557.465 867.222C559.285 869.632 559.285 869.632 560.74 872.028C562.661 874.725 564.335 875.851 567.324 877.252C569.853 877.697 569.853 877.697 572.531 877.637C574.082 877.651 574.082 877.651 575.664 877.665C577.358 877.658 577.358 877.658 579.087 877.651C580.292 877.657 581.496 877.664 582.738 877.671C586.079 877.686 589.419 877.688 592.76 877.685C596.364 877.684 599.968 877.701 603.572 877.715C609.815 877.738 616.057 877.75 622.3 877.754C631.326 877.761 640.353 877.784 649.379 877.811C664.023 877.854 678.667 877.884 693.312 877.906C707.537 877.927 721.763 877.954 735.988 877.99C736.865 877.992 737.742 877.994 738.646 877.996C743.044 878.007 747.443 878.018 751.842 878.03C788.336 878.123 824.83 878.194 861.324 878.252C861.324 878.582 861.324 878.912 861.324 879.252C860.2 879.252 859.077 879.253 857.919 879.254C830.559 879.268 803.2 879.311 775.841 879.384C762.61 879.419 749.379 879.444 736.148 879.448C724.614 879.451 713.08 879.471 701.546 879.512C695.441 879.534 689.336 879.546 683.23 879.538C677.479 879.531 671.728 879.546 665.977 879.58C663.87 879.588 661.764 879.588 659.658 879.579C648.726 879.534 639.992 879.573 630.324 885.252C626.702 886.711 623.012 887.969 619.324 889.252C617.739 889.806 616.155 890.361 614.57 890.916C611.932 891.84 609.294 892.762 606.655 893.681C602.314 895.193 597.995 896.741 593.699 898.377C588.115 900.449 582.368 901.94 576.603 903.415C572.342 904.54 569.098 905.927 565.324 908.252C562.32 909.209 562.32 909.209 558.762 910.064C558.086 910.227 557.41 910.389 556.714 910.557C529.382 917.02 501.78 922.349 474.055 926.807C471.515 927.221 468.98 927.654 466.445 928.096C453.801 930.259 441.119 931.401 428.324 932.252C426.476 932.383 426.476 932.383 424.59 932.517C410.183 933.476 395.759 933.537 381.324 933.564C380.657 933.566 379.99 933.567 379.302 933.569C355.132 933.611 331.292 932.481 307.324 929.252C306.644 929.16 305.964 929.069 305.263 928.975C295.109 927.591 285.18 926.071 275.324 923.252C272.176 922.451 269.017 921.693 265.859 920.932C230.398 912.299 230.398 912.299 217.199 907.877C215.865 907.432 215.865 907.432 214.504 906.978C209.295 905.156 204.448 902.885 199.544 900.363C197.007 899.093 194.443 898.113 191.762 897.189C180.605 893.04 170.004 887.479 159.324 882.252C159.324 881.592 159.324 880.932 159.324 880.252C158.751 880.131 158.179 880.009 157.589 879.884C144.74 876.297 132.398 866.618 121.981 858.528C119.444 856.574 116.846 854.704 114.262 852.814C95.2529 838.419 77.1446 821.754 63.3241 802.252C61.8454 800.356 60.3662 798.46 58.8866 796.564C37.3241 767.738 37.3241 767.738 37.3241 759.252C36.6641 759.252 36.0041 759.252 35.3241 759.252C23.3241 731.252 23.3241 731.252 22.5292 729.393C21.2991 726.517 20.056 723.649 18.785 720.791C17.2711 717.124 16.0481 713.434 14.9491 709.627C14.6321 708.53 14.6321 708.53 14.3087 707.41C9.24223 689.566 5.64616 671.659 3.32406 653.252C3.17163 652.046 3.0192 650.84 2.86215 649.598C0.599386 630.743 0.0371317 611.984 0.0115605 593.002C0.00797526 591.934 0.00439007 590.866 0.000696216 589.766C-0.0243016 575.947 0.623026 562.345 2.07806 548.603C2.41672 545.366 2.70702 542.126 2.99984 538.885C5.31256 514.794 8.60821 490.789 14.3241 467.252C14.8032 465.044 15.2824 462.835 15.7616 460.627C16.988 455.341 18.5427 450.203 20.2066 445.039C22.2518 438.636 24.0387 432.169 25.8241 425.689C28.3848 416.435 31.1115 407.302 34.3241 398.252C34.587 397.495 34.85 396.739 35.1209 395.959C36.4211 392.34 37.9481 388.865 39.5662 385.377C42.5547 378.829 45.2585 372.177 47.9491 365.502C53.7285 351.209 53.7285 351.209 56.3241 345.252C56.9841 345.252 57.6441 345.252 58.3241 345.252C58.4272 344.344 58.5303 343.437 58.6366 342.502C59.3585 339.089 60.2787 337.961 62.3241 335.252C62.985 333.755 63.5923 332.234 64.1522 330.697C66.3734 324.937 69.1641 319.565 72.0741 314.127C72.5807 313.17 73.0873 312.214 73.6092 311.229C74.843 308.901 76.0813 306.575 77.3241 304.252C77.9841 304.252 78.6441 304.252 79.3241 304.252C79.4001 303.584 79.4762 302.916 79.5545 302.229C80.5748 298.282 82.5406 295.079 84.6366 291.627C85.0759 290.893 85.5152 290.159 85.9679 289.402C93.3696 277.105 100.947 264.911 109.324 253.252C110.238 251.947 111.151 250.641 112.062 249.334C118.264 240.457 124.622 231.759 131.324 223.252C131.988 222.405 132.652 221.558 133.336 220.686C143.134 208.304 153.541 196.423 164.121 184.709C166.128 182.471 168.106 180.211 170.074 177.939C172.711 174.91 175.442 172.049 178.324 169.252C180.465 167.111 179.51 162.202 179.529 159.234C179.539 158.288 179.549 157.342 179.559 156.367C179.591 153.223 179.616 150.079 179.64 146.936C179.661 144.762 179.682 142.589 179.703 140.416C179.759 134.683 179.808 128.95 179.856 123.218C179.906 117.373 179.962 111.528 180.017 105.684C180.125 94.2064 180.227 82.7292 180.324 71.252Z" fill="#95F5FA"/>
<path d="M726.324 141.252C737.874 141.252 749.424 141.252 761.324 141.252C761.324 172.272 761.324 203.292 761.324 235.252C787.905 232.316 787.905 232.316 814.324 228.252C817.657 227.677 820.987 227.109 824.324 226.564C825.078 226.435 825.832 226.305 826.609 226.172C831.907 225.313 836.957 225.14 842.324 225.252C842.324 224.592 842.324 223.932 842.324 223.252C884.25 216.476 925.685 222.494 963.324 242.252C963.324 242.912 963.324 243.572 963.324 244.252C963.996 244.483 964.667 244.713 965.359 244.951C969.125 246.603 972.365 248.765 975.762 251.064C976.404 251.49 977.047 251.917 977.709 252.355C983.038 255.932 988.253 259.608 992.262 264.689C994.218 267.061 996.153 268.989 998.574 270.877C1004.1 275.477 1008.14 281.464 1012.32 287.252C1012.74 287.821 1013.16 288.389 1013.59 288.975C1022.98 301.908 1030.46 316.54 1035.46 331.741C1036.28 334.115 1037.23 336.375 1038.23 338.678C1040.79 345.033 1042.11 351.553 1043.45 358.252C1043.7 359.439 1043.95 360.626 1044.21 361.85C1047.73 379.053 1048.73 396.03 1048.7 413.564C1048.7 414.569 1048.7 415.573 1048.7 416.608C1048.64 442.963 1045.64 468.932 1037.09 493.997C1035.79 497.813 1034.6 501.659 1033.39 505.502C1033.13 506.33 1032.86 507.157 1032.59 508.01C1031.11 512.705 1029.67 517.41 1028.26 522.127C1025.43 531.344 1021.89 540.228 1017.81 548.955C1016.64 551.555 1015.54 554.158 1014.46 556.799C1008.81 570.618 1001.93 583.416 994.324 596.252C993.852 597.058 993.38 597.863 992.894 598.693C982.668 616.117 971.041 632.564 958.324 648.252C957.274 649.559 956.225 650.866 955.176 652.174C942.529 667.887 929.505 683.277 915.113 697.432C913.287 699.289 911.584 701.214 909.887 703.189C904.156 709.832 897.896 715.854 891.238 721.557C888.691 723.813 886.324 726.223 883.965 728.674C882.324 730.252 882.324 730.252 880.254 731.522C878.112 733.101 878.112 733.101 877.816 735.636C877.811 737.059 877.811 737.059 877.805 738.51C877.791 739.6 877.777 740.689 877.763 741.812C877.771 743.605 877.771 743.605 877.778 745.434C877.763 747.322 877.763 747.322 877.747 749.248C877.719 752.701 877.716 756.153 877.717 759.605C877.714 763.213 877.688 766.82 877.665 770.427C877.624 777.259 877.604 784.091 877.591 790.922C877.575 798.7 877.536 806.477 877.496 814.255C877.414 830.254 877.36 846.253 877.324 862.252C876.994 862.252 876.664 862.252 876.324 862.252C876.324 860.723 876.324 860.723 876.324 859.164C876.314 814.259 876.298 769.353 876.25 724.448C876.249 723.768 876.248 723.088 876.248 722.388C876.232 707.614 876.215 692.84 876.197 678.066C876.189 670.822 876.18 663.577 876.172 656.332C876.171 655.611 876.17 654.89 876.169 654.147C876.142 630.776 876.131 607.406 876.128 584.035C876.126 560.02 876.107 536.005 876.067 511.99C876.061 508.598 876.056 505.206 876.051 501.815C876.049 500.814 876.049 500.814 876.048 499.792C876.032 489.711 876.031 479.629 876.038 469.547C876.046 458.078 876.037 446.609 876.006 435.14C875.99 429.286 875.983 423.432 875.998 417.578C876.011 412.22 876.001 406.862 875.973 401.504C875.967 399.564 875.969 397.625 875.981 395.685C875.995 393.049 875.979 390.415 875.955 387.78C875.967 387.026 875.978 386.272 875.99 385.495C875.89 379.904 874.355 375.256 870.324 371.252C837.495 354.837 797.027 366.612 760.324 366.252C760.324 292.332 760.324 218.412 760.324 142.252C749.104 142.252 737.884 142.252 726.324 142.252C726.324 141.922 726.324 141.592 726.324 141.252Z" fill="#95F5FA"/>
<path d="M516.949 0.00204468C517.861 0.00136994 518.773 0.00069519 519.713 0C539.709 0.0234819 558.487 1.05644 577.324 8.25204C579.781 9.02875 582.239 9.79946 584.699 10.5645C590.531 12.5106 596.116 14.8048 601.699 17.377C602.443 17.7139 603.188 18.0507 603.955 18.3978C605.786 19.2666 607.561 20.2513 609.324 21.252C609.654 22.242 609.984 23.232 610.324 24.252C612.125 25.2885 612.125 25.2885 614.324 26.252C629.108 35.6752 642.929 51.1621 648.324 68.252C648.324 69.242 648.324 70.232 648.324 71.252C535.134 71.252 421.944 71.252 305.324 71.252C310.617 67.0178 316.113 63.8127 322.006 60.5411C323.693 59.6029 325.378 58.6595 327.06 57.713C330.018 56.05 332.983 54.3998 335.949 52.752C336.909 52.2113 337.87 51.6705 338.859 51.1134C339.768 50.6126 340.677 50.1118 341.613 49.5958C342.425 49.144 343.237 48.6922 344.073 48.2267C346.324 47.252 346.324 47.252 350.324 47.252C350.324 46.592 350.324 45.932 350.324 45.252C352.964 44.592 355.604 43.932 358.324 43.252C358.324 42.592 358.324 41.932 358.324 41.252C362.502 39.4126 366.683 37.5797 370.867 35.7528C372.289 35.1309 373.71 34.5072 375.13 33.8817C377.176 32.9809 379.224 32.0866 381.273 31.1935C381.904 30.9143 382.534 30.6351 383.184 30.3474C386.542 28.8918 389.703 27.808 393.324 27.252C393.324 26.592 393.324 25.932 393.324 25.252C410.318 18.7191 427.336 13.5266 444.976 9.09824C447.126 8.55474 449.273 7.9958 451.415 7.41757C458.721 5.47655 465.937 4.41405 473.449 3.62704C475.661 3.38812 477.871 3.1461 480.082 2.90048C481.523 2.74845 481.523 2.74845 482.993 2.59335C485.342 2.3737 485.342 2.3737 487.324 1.25204C497.145 -0.125684 507.051 0.00860314 516.949 0.00204468Z" fill="#96F5FA"/>
<path d="M603.324 413.252C677.574 413.252 751.824 413.252 828.324 413.252C828.324 434.702 828.324 456.152 828.324 478.252C754.074 478.252 679.824 478.252 603.324 478.252C603.324 456.802 603.324 435.352 603.324 413.252Z" fill="#5EA5DF"/>
<path d="M266.324 168.252C278.864 168.252 291.404 168.252 304.324 168.252C304.324 259.992 304.324 351.732 304.324 446.252C291.784 446.252 279.244 446.252 266.324 446.252C266.324 354.512 266.324 262.772 266.324 168.252Z" fill="#042EFF"/>
<path d="M227.324 794.252C335.564 794.252 443.804 794.252 555.324 794.252C555.324 802.502 555.324 810.752 555.324 819.252C447.084 819.252 338.844 819.252 227.324 819.252C227.324 811.002 227.324 802.752 227.324 794.252Z" fill="#FAFAFA"/>
<path d="M262.324 830.252C359.014 830.252 455.704 830.252 555.324 830.252C555.324 838.172 555.324 846.092 555.324 854.252C458.634 854.252 361.944 854.252 262.324 854.252C262.324 846.332 262.324 838.412 262.324 830.252Z" fill="#FBFBFB"/>
<path d="M491.324 264.252C503.864 264.252 516.404 264.252 529.324 264.252C529.324 324.312 529.324 384.372 529.324 446.252C516.784 446.252 504.244 446.252 491.324 446.252C491.324 386.192 491.324 326.132 491.324 264.252Z" fill="#042EFF"/>
<path d="M416.324 267.252C428.864 267.252 441.404 267.252 454.324 267.252C454.353 276.856 454.376 286.46 454.387 296.064C454.388 296.816 454.388 297.568 454.389 298.342C454.422 330.96 454.144 363.574 453.824 396.189C453.812 397.408 453.8 398.627 453.788 399.883C453.639 415.006 453.484 430.129 453.324 445.252C441.114 445.252 428.904 445.252 416.324 445.252C416.324 386.512 416.324 327.772 416.324 267.252Z" fill="#002BFF"/>
<path d="M690.324 118.252C698.574 118.252 706.824 118.252 715.324 118.252C715.324 200.092 715.324 281.932 715.324 366.252C707.074 366.252 698.824 366.252 690.324 366.252C690.324 284.412 690.324 202.572 690.324 118.252Z" fill="#FBFBFB"/>
<path d="M566.324 214.252C578.864 214.252 591.404 214.252 604.324 214.252C604.324 264.412 604.324 314.572 604.324 366.252C591.784 366.582 579.244 366.912 566.324 367.252C566.324 316.762 566.324 266.272 566.324 214.252Z" fill="#042DFE"/>
<path d="M726.324 152.252C733.914 152.252 741.504 152.252 749.324 152.252C751.134 154.061 750.447 156.547 750.453 158.956C750.449 160.195 750.449 160.195 750.444 161.459C750.445 162.329 750.446 163.2 750.447 164.097C750.449 167.037 750.443 169.978 750.438 172.918C750.437 175.017 750.438 177.115 750.438 179.214C750.438 184.931 750.433 190.648 750.426 196.364C750.419 202.331 750.419 208.298 750.418 214.266C750.414 225.574 750.406 236.882 750.396 248.19C750.385 261.061 750.38 273.931 750.375 286.802C750.364 313.285 750.346 339.769 750.324 366.252C742.404 366.252 734.484 366.252 726.324 366.252C726.324 295.632 726.324 225.012 726.324 152.252Z" fill="#FAFAFA"/>
<path d="M341.324 324.252C353.864 324.252 366.404 324.252 379.324 324.252C379.324 364.512 379.324 404.772 379.324 446.252C366.784 446.252 354.244 446.252 341.324 446.252C341.324 405.992 341.324 365.732 341.324 324.252Z" fill="#0730FF"/>
<path d="M381.324 623.252C414.324 623.252 447.324 623.252 481.324 623.252C481.324 634.802 481.324 646.352 481.324 658.252C448.324 658.252 415.324 658.252 381.324 658.252C381.324 646.702 381.324 635.152 381.324 623.252Z" fill="#F8F8F8"/>
<path d="M271.324 623.252C304.324 623.252 337.324 623.252 371.324 623.252C371.324 634.802 371.324 646.352 371.324 658.252C338.324 658.252 305.324 658.252 271.324 658.252C271.324 646.702 271.324 635.152 271.324 623.252Z" fill="#F8F8F8"/>
<path d="M382.324 577.252C414.664 577.252 447.004 577.252 480.324 577.252C480.324 588.802 480.324 600.352 480.324 612.252C447.984 612.252 415.644 612.252 382.324 612.252C382.324 600.702 382.324 589.152 382.324 577.252Z" fill="#FCFCFC"/>
<path d="M272.324 577.252C304.664 577.252 337.004 577.252 370.324 577.252C370.324 588.802 370.324 600.352 370.324 612.252C337.984 612.252 305.644 612.252 272.324 612.252C272.324 600.702 272.324 589.152 272.324 577.252Z" fill="#FCFDFD"/>
<path d="M382.324 669.252C414.664 669.252 447.004 669.252 480.324 669.252C480.324 680.472 480.324 691.692 480.324 703.252C447.984 703.252 415.644 703.252 382.324 703.252C382.324 692.032 382.324 680.812 382.324 669.252Z" fill="#FEFEFE"/>
<path d="M272.324 669.252C304.664 669.252 337.004 669.252 370.324 669.252C370.324 680.472 370.324 691.692 370.324 703.252C337.984 703.252 305.644 703.252 272.324 703.252C272.324 692.032 272.324 680.812 272.324 669.252Z" fill="#FEFEFE"/>
<path d="M382.324 532.252C414.664 532.252 447.004 532.252 480.324 532.252C480.324 543.472 480.324 554.692 480.324 566.252C447.984 566.252 415.644 566.252 382.324 566.252C382.324 555.032 382.324 543.812 382.324 532.252Z" fill="#FDFDFD"/>
<path d="M272.324 532.252C304.664 532.252 337.004 532.252 370.324 532.252C370.324 543.472 370.324 554.692 370.324 566.252C337.984 566.252 305.644 566.252 272.324 566.252C272.324 555.032 272.324 543.812 272.324 532.252Z" fill="#FDFDFD"/>
<path d="M491.324 623.252C512.444 623.252 533.564 623.252 555.324 623.252C555.324 634.802 555.324 646.352 555.324 658.252C534.204 658.252 513.084 658.252 491.324 658.252C491.324 646.702 491.324 635.152 491.324 623.252Z" fill="#F9FAFA"/>
<path d="M491.324 577.252C512.444 577.252 533.564 577.252 555.324 577.252C555.324 588.802 555.324 600.352 555.324 612.252C534.204 612.252 513.084 612.252 491.324 612.252C491.324 600.702 491.324 589.152 491.324 577.252Z" fill="#FBFBFB"/>
<path d="M491.324 669.252C512.444 669.252 533.564 669.252 555.324 669.252C555.324 680.472 555.324 691.692 555.324 703.252C534.204 703.252 513.084 703.252 491.324 703.252C491.324 692.032 491.324 680.812 491.324 669.252Z" fill="#FDFDFD"/>
<path d="M491.324 532.252C512.444 532.252 533.564 532.252 555.324 532.252C555.324 543.472 555.324 554.692 555.324 566.252C534.204 566.252 513.084 566.252 491.324 566.252C491.324 555.032 491.324 543.812 491.324 532.252Z" fill="#FCFCFC"/>
<path d="M736.734 637.658C737.769 637.658 737.769 637.658 738.825 637.658C740.275 637.663 741.724 637.68 743.174 637.709C745.384 637.751 747.592 637.751 749.802 637.744C761.85 637.833 761.85 637.833 766.324 641.251C768.621 644.698 768.581 646.032 768.59 650.091C768.593 651.809 768.593 651.809 768.597 653.562C768.59 654.759 768.582 655.956 768.574 657.189C768.586 658.979 768.586 658.979 768.597 660.804C768.595 661.951 768.592 663.097 768.59 664.279C768.587 665.328 768.585 666.377 768.583 667.458C768.318 670.317 767.97 671.913 766.324 674.251C762.828 676.864 758.826 676.574 754.636 676.587C753.527 676.597 753.527 676.597 752.396 676.608C750.836 676.618 749.276 676.622 747.716 676.622C745.332 676.626 742.95 676.663 740.566 676.701C739.048 676.707 737.53 676.711 736.011 676.712C735.301 676.727 734.59 676.741 733.858 676.756C730.418 676.724 728.646 676.505 725.906 674.348C722.014 669.19 722.98 663.181 722.886 656.939C722.841 655.702 722.795 654.465 722.748 653.191C722.733 651.998 722.718 650.805 722.703 649.576C722.678 648.483 722.653 647.391 722.627 646.266C723.424 642.82 724.703 641.271 727.552 639.182C730.592 637.586 733.343 637.639 736.734 637.658Z" fill="#0029F9"/>
<path d="M682.742 637.956C684.985 637.939 687.228 637.895 689.471 637.851C690.905 637.841 692.339 637.833 693.773 637.826C695.076 637.811 696.379 637.797 697.721 637.782C701.917 638.329 704.062 639.609 707.324 642.252C709.481 646.566 708.554 652.325 708.574 657.064C708.595 658.253 708.615 659.442 708.637 660.668C708.644 662.389 708.644 662.389 708.652 664.146C708.666 665.722 708.666 665.722 708.681 667.329C708.272 670.68 707.313 672.548 705.324 675.252C700.641 677.593 693.696 676.605 688.494 676.657C686.844 676.678 685.195 676.712 683.545 676.759C681.162 676.826 678.782 676.854 676.398 676.873C675.665 676.9 674.931 676.928 674.176 676.957C670.033 676.94 668.48 676.392 665.361 673.594C663.2 670.047 662.683 668.252 662.66 664.154C662.654 663.023 662.647 661.892 662.641 660.726C662.67 658.975 662.67 658.975 662.699 657.189C662.68 656.018 662.661 654.847 662.641 653.64C662.695 644.124 662.695 644.124 665.801 641.005C666.634 640.427 667.466 639.848 668.324 639.252C671.029 636.546 678.845 637.977 682.742 637.956Z" fill="#0029F9"/>
<path d="M616.699 689.658C617.73 689.658 617.73 689.658 618.782 689.658C620.228 689.663 621.674 689.68 623.119 689.71C625.318 689.751 627.515 689.751 629.715 689.744C641.751 689.833 641.751 689.833 647.324 693.252C649.543 697.69 648.599 703.69 648.636 708.564C648.665 709.801 648.694 711.038 648.724 712.312C648.733 713.505 648.741 714.698 648.75 715.927C648.764 717.02 648.779 718.112 648.794 719.237C648.216 722.945 646.908 724.583 644.324 727.252C639.837 729.495 633.33 728.563 628.349 728.602C626.796 728.618 625.243 728.645 623.69 728.684C621.447 728.739 619.205 728.76 616.961 728.775C616.271 728.798 615.581 728.82 614.871 728.844C610.978 728.827 609.452 728.357 606.409 725.844C602.132 720.527 602.989 715.051 602.886 708.439C602.818 706.655 602.818 706.655 602.748 704.835C602.733 703.688 602.718 702.54 602.703 701.357C602.678 700.307 602.653 699.256 602.627 698.174C603.434 694.791 604.761 693.248 607.554 691.19C610.581 689.585 613.316 689.639 616.699 689.658Z" fill="#0029FA"/>
<path d="M671.764 587.025C673.235 587.026 674.705 587.037 676.176 587.057C676.95 587.06 677.724 587.063 678.521 587.066C680.997 587.077 683.473 587.102 685.949 587.127C687.626 587.137 689.303 587.147 690.98 587.155C695.095 587.177 699.21 587.211 703.324 587.252C703.324 587.912 703.324 588.572 703.324 589.252C703.964 589.541 704.603 589.83 705.262 590.127C707.324 591.252 707.324 591.252 708.324 593.252C708.622 597.517 708.602 601.791 708.637 606.065C708.666 607.254 708.695 608.443 708.725 609.668C708.733 610.816 708.741 611.964 708.75 613.147C708.765 614.197 708.779 615.248 708.794 616.33C708.208 619.974 706.857 621.62 704.324 624.252C701.3 625.765 698.152 625.457 694.832 625.491C693.719 625.503 693.719 625.503 692.582 625.515C691.011 625.529 689.439 625.54 687.867 625.548C685.465 625.565 683.065 625.609 680.664 625.653C679.137 625.663 677.609 625.671 676.082 625.678C675.365 625.696 674.648 625.713 673.91 625.731C670.494 625.716 668.657 625.505 665.902 623.413C662.211 618.358 663.102 612.369 663.074 606.377C663.054 605.288 663.033 604.199 663.012 603.077C663.007 602.023 663.001 600.97 662.996 599.885C662.987 598.925 662.977 597.965 662.968 596.976C663.666 591.642 666.242 587.39 671.764 587.025Z" fill="#5EA4DE"/>
<path d="M796 740.845C797.143 740.828 797.143 740.828 798.309 740.811C799.924 740.792 801.539 740.779 803.154 740.771C805.617 740.752 808.078 740.69 810.541 740.627C812.11 740.614 813.68 740.603 815.25 740.595C815.983 740.571 816.717 740.546 817.472 740.521C821.621 740.556 823.173 741.116 826.291 743.925C828.425 747.418 828.947 749.101 828.918 753.13C828.915 754.217 828.912 755.303 828.91 756.422C828.867 758.101 828.867 758.101 828.824 759.814C828.828 761.499 828.828 761.499 828.832 763.218C828.718 772.782 828.718 772.782 825.324 777.252C821.895 779.818 818.014 779.59 813.89 779.623C813.175 779.632 812.46 779.641 811.724 779.65C810.215 779.665 808.706 779.673 807.198 779.677C804.897 779.689 802.599 779.738 800.299 779.789C798.829 779.798 797.36 779.805 795.89 779.81C795.207 779.83 794.523 779.849 793.819 779.869C790.119 779.835 788.395 779.304 785.388 777.092C783.003 773.81 782.703 772.264 782.73 768.252C782.733 767.117 782.735 765.983 782.738 764.814C782.766 763.638 782.795 762.463 782.824 761.252C782.82 759.488 782.82 759.488 782.816 757.689C782.935 747.218 784.649 740.976 796 740.845Z" fill="#0029FA"/>
<path d="M623.541 637.882C625.685 637.877 627.828 637.841 629.972 637.803C631.347 637.797 632.722 637.793 634.097 637.791C635.96 637.779 635.96 637.779 637.86 637.766C641.958 638.341 644.122 639.681 647.324 642.252C649.548 646.7 648.643 652.681 648.699 657.565C648.755 659.42 648.755 659.42 648.812 661.313C648.824 662.506 648.835 663.699 648.847 664.928C648.877 666.566 648.877 666.566 648.907 668.238C648.104 672.387 646.729 673.788 643.324 676.252C640.463 676.752 638.208 676.956 635.355 676.916C634.597 676.921 633.839 676.926 633.058 676.931C631.461 676.934 629.864 676.925 628.268 676.904C625.83 676.877 623.398 676.904 620.96 676.936C619.404 676.933 617.848 676.926 616.293 676.916C615.206 676.932 615.206 676.932 614.098 676.947C610.307 676.86 608.441 676.339 605.363 674.07C603.048 670.871 602.702 669.406 602.73 665.506C602.733 664.421 602.735 663.337 602.738 662.219C602.766 661.096 602.795 659.972 602.824 658.815C602.82 657.135 602.82 657.135 602.816 655.422C602.941 644.857 602.941 644.857 606.324 640.252C611.312 636.896 617.76 637.88 623.541 637.882Z" fill="#0029F9"/>
<path d="M622.948 509.936C625.184 509.939 627.42 509.916 629.656 509.89C631.085 509.888 632.513 509.887 633.941 509.888C635.237 509.886 636.532 509.883 637.867 509.879C642.526 510.381 645.058 511.986 648.324 515.252C648.814 519.649 648.695 524.08 648.699 528.502C648.724 529.73 648.748 530.959 648.773 532.224C648.779 534.009 648.779 534.009 648.785 535.83C648.793 536.917 648.802 538.004 648.81 539.124C648.178 543.195 647.147 545.238 644.324 548.252C641.344 548.865 639.177 549.074 636.199 549.013C635.415 549.017 634.631 549.02 633.824 549.024C632.17 549.023 630.515 549.008 628.861 548.979C626.332 548.939 623.807 548.958 621.277 548.984C619.668 548.977 618.059 548.966 616.449 548.951C615.695 548.958 614.941 548.965 614.164 548.972C610.301 548.868 608.671 548.595 605.879 545.833C602.612 540.409 603.103 535.688 603.074 529.439C603.054 528.345 603.033 527.252 603.012 526.125C603.007 525.067 603.001 524.009 602.996 522.92C602.987 521.953 602.977 520.987 602.968 519.991C603.393 516.726 604.385 514.893 606.324 512.252C611.264 508.959 617.163 509.919 622.948 509.936Z" fill="#ADCEF3"/>
<path d="M675.781 740.916C676.521 740.909 677.261 740.902 678.023 740.895C679.591 740.885 681.159 740.881 682.727 740.881C685.117 740.877 687.506 740.84 689.896 740.802C691.42 740.796 692.945 740.792 694.469 740.791C695.536 740.769 695.536 740.769 696.625 740.747C701.471 740.791 703.925 741.812 707.324 745.252C709.55 749.704 708.599 755.737 708.637 760.627C708.666 761.872 708.695 763.117 708.725 764.4C708.733 765.596 708.741 766.792 708.75 768.025C708.764 769.122 708.779 770.22 708.794 771.351C708.214 774.932 707.157 776.058 704.324 778.252C699.131 779.983 693.565 779.477 688.128 779.492C685.964 779.501 683.801 779.533 681.637 779.564C680.254 779.571 678.871 779.576 677.488 779.58C675.608 779.594 675.608 779.594 673.69 779.608C670.024 779.22 668.196 778.533 665.324 776.252C662.074 771.613 662.996 765.738 663.012 760.314C662.995 759.229 662.979 758.145 662.963 757.027C662.962 755.978 662.961 754.93 662.961 753.849C662.958 752.895 662.955 751.942 662.952 750.959C664.057 742.922 668.459 740.938 675.781 740.916Z" fill="#0029FA"/>
<path d="M616.625 740.88C617.696 740.867 617.696 740.867 618.789 740.853C620.299 740.839 621.809 740.83 623.32 740.826C625.619 740.814 627.915 740.765 630.213 740.714C631.683 740.705 633.154 740.698 634.625 740.693C635.306 740.673 635.988 740.654 636.69 740.634C640.342 740.668 642.856 741.261 645.758 743.4C648.746 746.72 649.084 748.039 649.086 752.435C649.089 753.61 649.092 754.785 649.096 755.996C649.068 757.215 649.04 758.433 649.012 759.689C649.026 760.904 649.041 762.119 649.057 763.371C648.974 772.2 648.974 772.2 646.251 776.603C642.725 779.794 640.335 780.087 635.793 779.943C635.079 779.942 634.366 779.94 633.631 779.939C632.128 779.93 630.625 779.906 629.122 779.869C626.831 779.814 624.542 779.807 622.25 779.808C620.785 779.793 619.32 779.776 617.855 779.755C616.835 779.75 616.835 779.75 615.794 779.745C611.502 779.618 608.698 778.943 605.324 776.252C602.074 771.613 602.996 765.738 603.012 760.314C602.995 759.229 602.979 758.145 602.963 757.027C602.962 755.978 602.961 754.93 602.961 753.849C602.958 752.895 602.955 751.942 602.952 750.959C603.397 747.723 604.404 745.876 606.324 743.252C609.889 740.875 612.502 740.913 616.625 740.88Z" fill="#0029FA"/>
<path d="M795.855 689.658C796.569 689.658 797.282 689.658 798.017 689.658C799.52 689.663 801.023 689.68 802.525 689.709C804.817 689.751 807.106 689.751 809.398 689.744C810.863 689.754 812.328 689.767 813.792 689.783C814.813 689.783 814.813 689.783 815.854 689.783C820.161 689.89 822.901 690.617 826.324 693.251C829.474 697.977 828.733 702.943 828.761 708.501C828.794 709.622 828.827 710.742 828.861 711.896C828.868 712.988 828.875 714.08 828.882 715.205C828.896 716.196 828.909 717.188 828.923 718.209C828.097 722.402 826.552 725.403 823.324 728.251C820.293 728.951 818.335 729.173 815.32 729.076C814.56 729.075 813.799 729.075 813.016 729.074C811.415 729.066 809.813 729.041 808.213 728.999C805.764 728.939 803.321 728.938 800.873 728.945C799.313 728.929 797.754 728.911 796.195 728.888C795.466 728.887 794.736 728.886 793.985 728.884C790.567 728.773 788.646 728.497 785.894 726.399C782.063 721.16 783.023 714.59 782.949 708.376C782.893 706.599 782.893 706.599 782.835 704.787C782.824 703.643 782.812 702.5 782.8 701.322C782.78 700.278 782.761 699.234 782.74 698.158C784.184 690.964 789.259 689.499 795.855 689.658Z" fill="#0029FA"/>
<path d="M608.324 587.252C619.874 587.252 631.424 587.252 643.324 587.252C643.324 587.912 643.324 588.572 643.324 589.252C643.964 589.561 644.603 589.871 645.262 590.189C647.324 591.252 647.324 591.252 648.324 592.252C648.635 596.661 648.603 601.083 648.637 605.502C648.666 606.743 648.695 607.985 648.725 609.264C648.733 610.461 648.741 611.659 648.75 612.893C648.765 613.991 648.779 615.09 648.794 616.222C648.217 619.941 646.917 621.577 644.324 624.252C639.733 626.548 632.967 625.564 627.867 625.602C626.258 625.619 624.65 625.646 623.042 625.684C620.722 625.739 618.403 625.761 616.082 625.775C615.365 625.798 614.648 625.821 613.91 625.844C610.109 625.828 608.643 625.569 605.902 622.844C602.602 617.423 603.103 612.7 603.074 606.439C603.054 605.346 603.033 604.252 603.012 603.125C603.007 602.067 603.001 601.01 602.996 599.92C602.987 598.953 602.977 597.987 602.968 596.991C603.389 593.754 604.379 591.854 606.324 589.252C606.984 589.252 607.644 589.252 608.324 589.252C608.324 588.592 608.324 587.932 608.324 587.252Z" fill="#F9F9F9"/>
<path d="M676.293 792.588C677.051 792.584 677.809 792.579 678.589 792.574C680.186 792.57 681.783 792.58 683.38 792.6C685.817 792.627 688.25 792.601 690.687 792.569C692.243 792.572 693.799 792.578 695.355 792.588C696.079 792.578 696.803 792.568 697.549 792.558C701.33 792.645 703.207 793.166 706.281 795.421C708.627 798.673 708.966 800.249 708.988 804.217C708.998 805.912 708.998 805.912 709.008 807.641C708.988 808.812 708.969 809.983 708.949 811.19C708.968 812.357 708.988 813.524 709.008 814.727C708.953 824.254 708.953 824.254 705.91 828.006C700.683 832.546 694.796 831.475 688.203 831.493C686.03 831.502 683.858 831.533 681.685 831.565C680.298 831.571 678.911 831.577 677.523 831.58C675.633 831.594 675.633 831.594 673.706 831.609C670.007 831.219 668.184 830.609 665.324 828.252C662.321 822.834 662.917 816.782 662.886 810.752C662.854 809.624 662.821 808.496 662.787 807.334C662.78 806.245 662.773 805.156 662.765 804.034C662.752 803.044 662.738 802.055 662.725 801.036C664.301 793.716 669.632 792.495 676.293 792.588Z" fill="#0029FA"/>
<path d="M616.293 792.491C617.051 792.487 617.809 792.484 618.59 792.48C620.187 792.481 621.784 792.496 623.381 792.525C625.818 792.565 628.25 792.546 630.688 792.52C632.244 792.528 633.8 792.538 635.356 792.553C636.08 792.546 636.804 792.539 637.55 792.532C641.325 792.637 643.215 793.172 646.285 795.421C648.644 798.696 648.946 800.259 648.918 804.252C648.916 805.387 648.913 806.521 648.91 807.69C648.868 809.453 648.868 809.453 648.824 811.252C648.828 813.016 648.828 813.016 648.832 814.815C648.719 824.814 648.719 824.814 645.324 829.252C640.555 832.771 633.731 831.624 628.053 831.623C625.897 831.627 623.743 831.664 621.588 831.702C620.21 831.707 618.832 831.711 617.453 831.713C615.583 831.726 615.583 831.726 613.674 831.738C609.754 831.17 608.074 830.057 605.324 827.252C605.324 826.592 605.324 825.932 605.324 825.252C604.664 825.252 604.004 825.252 603.324 825.252C603.179 821.044 603.09 816.837 603.012 812.627C602.97 811.438 602.928 810.248 602.885 809.022C602.869 807.868 602.853 806.715 602.836 805.526C602.81 804.468 602.784 803.41 602.757 802.32C604.2 794.522 608.975 792.336 616.293 792.491Z" fill="#0029F9"/>
<path d="M736 740.845C737.143 740.828 737.143 740.828 738.31 740.811C739.924 740.792 741.539 740.779 743.154 740.771C745.618 740.752 748.078 740.69 750.541 740.627C752.111 740.614 753.68 740.603 755.25 740.595C755.983 740.571 756.717 740.546 757.473 740.521C761.621 740.556 763.174 741.116 766.292 743.925C768.426 747.418 768.947 749.101 768.918 753.13C768.915 754.217 768.913 755.303 768.91 756.422C768.868 758.101 768.868 758.101 768.824 759.814C768.828 761.499 768.828 761.499 768.832 763.218C768.718 772.782 768.718 772.782 765.324 777.252C760.557 780.775 753.729 779.585 748.052 779.567C745.897 779.564 743.743 779.588 741.588 779.613C740.21 779.615 738.831 779.616 737.453 779.615C736.206 779.618 734.959 779.621 733.674 779.624C730.026 779.218 728.186 778.52 725.324 776.252C722.074 771.613 722.996 765.738 723.012 760.314C722.995 759.229 722.979 758.145 722.963 757.027C722.962 755.978 722.961 754.93 722.961 753.849C722.958 752.895 722.955 751.942 722.952 750.959C724.073 742.805 728.605 740.93 736 740.845Z" fill="#0029FA"/>
<path d="M802.948 637.936C805.185 637.939 807.42 637.916 809.657 637.89C811.085 637.888 812.513 637.887 813.942 637.888C815.237 637.886 816.532 637.883 817.867 637.879C821.578 638.279 823.424 638.936 826.325 641.252C829.575 645.89 828.653 651.766 828.637 657.189C828.653 658.274 828.669 659.359 828.686 660.476C828.687 661.525 828.687 662.574 828.688 663.654C828.691 664.608 828.694 665.562 828.697 666.544C828.252 669.78 827.245 671.627 825.325 674.252C821.682 676.68 818.948 676.558 814.735 676.553C813.994 676.557 813.253 676.561 812.489 676.566C810.924 676.571 809.358 676.572 807.792 676.567C805.399 676.564 803.008 676.588 800.616 676.613C799.093 676.615 797.57 676.616 796.047 676.615C795.334 676.624 794.62 676.633 793.885 676.643C790.793 676.614 788.634 676.423 785.904 674.917C781.786 670.576 783.1 663.452 783.075 657.877C783.054 656.74 783.033 655.603 783.012 654.431C783.007 653.333 783.002 652.235 782.996 651.103C782.987 650.101 782.978 649.099 782.968 648.067C783.387 644.755 784.352 642.925 786.325 640.252C791.264 636.959 797.163 637.919 802.948 637.936Z" fill="#0029FA"/>
<path d="M743.521 690.012C745.685 690.002 747.848 689.971 750.012 689.939C751.395 689.933 752.778 689.928 754.16 689.924C756.041 689.91 756.041 689.91 757.959 689.896C761.605 690.282 763.434 691.039 766.324 693.252C769.475 697.977 768.734 702.943 768.762 708.502C768.795 709.622 768.828 710.742 768.862 711.896C768.869 712.988 768.876 714.08 768.883 715.205C768.897 716.197 768.91 717.188 768.924 718.21C768.098 722.403 766.55 725.401 763.324 728.252C760.296 728.964 758.337 729.196 755.321 729.111C754.56 729.113 753.8 729.115 753.017 729.117C751.415 729.113 749.814 729.092 748.213 729.055C745.765 729.002 743.322 729.014 740.873 729.033C739.314 729.021 737.755 729.006 736.196 728.986C735.466 728.99 734.737 728.994 733.986 728.998C730.183 728.875 728.633 728.559 725.895 725.831C722.451 720.176 723.064 714.903 723.012 708.377C722.983 707.179 722.954 705.982 722.924 704.748C722.916 703.597 722.907 702.446 722.899 701.26C722.884 700.204 722.87 699.149 722.854 698.061C723.442 694.547 724.55 693.418 727.324 691.252C732.518 689.521 738.084 690.026 743.521 690.012Z" fill="#0029FB"/>
<path d="M683.596 689.936C685.751 689.939 687.905 689.916 690.06 689.89C691.439 689.888 692.817 689.887 694.195 689.888C695.442 689.885 696.689 689.882 697.974 689.879C702.56 690.389 705.107 692.035 708.324 695.252C708.785 699.504 708.648 703.79 708.636 708.064C708.653 709.253 708.669 710.442 708.685 711.668C708.686 712.816 708.687 713.963 708.687 715.146C708.69 716.196 708.693 717.247 708.696 718.329C708.149 722.626 706.345 725.23 703.324 728.252C700.73 728.513 698.247 728.652 695.648 728.693C694.886 728.707 694.124 728.721 693.339 728.735C691.724 728.758 690.109 728.775 688.494 728.787C686.03 728.814 683.57 728.889 681.107 728.964C679.538 728.981 677.968 728.995 676.398 729.005C675.665 729.035 674.931 729.065 674.175 729.096C671.232 729.071 668.983 728.834 666.733 726.845C663.912 723.196 662.695 720.17 662.73 715.494C662.733 714.456 662.735 713.418 662.738 712.349C662.766 711.286 662.795 710.222 662.824 709.127C662.821 708.055 662.819 706.984 662.816 705.88C662.884 700.417 662.93 696.752 666.324 692.252C671.091 688.728 677.919 689.918 683.596 689.936Z" fill="#0029FB"/>
<path d="M799.582 586.93C800.32 586.932 801.057 586.934 801.817 586.937C804.052 586.94 806.285 586.916 808.52 586.891C809.949 586.889 811.379 586.888 812.809 586.889C814.105 586.886 815.402 586.883 816.737 586.88C820.629 587.284 823.022 588.182 826.324 590.252C829.489 595 828.652 600.045 828.637 605.627C828.653 606.764 828.669 607.901 828.686 609.073C828.686 610.171 828.687 611.269 828.688 612.401C828.69 613.403 828.693 614.405 828.697 615.437C828.264 618.71 827.297 620.624 825.324 623.252C824.664 623.252 824.004 623.252 823.324 623.252C823.324 623.912 823.324 624.572 823.324 625.252C818.252 625.351 813.181 625.424 808.108 625.472C806.382 625.492 804.657 625.519 802.931 625.554C800.451 625.602 797.972 625.625 795.492 625.643C794.72 625.663 793.948 625.684 793.153 625.705C787.807 625.708 787.807 625.708 785.376 623.415C782.671 617.852 783.103 612.443 783.074 606.377C783.054 605.288 783.033 604.199 783.012 603.076C783.007 602.023 783.001 600.97 782.996 599.885C782.987 598.925 782.977 597.965 782.968 596.975C784.306 586.754 791.063 586.963 799.582 586.93Z" fill="#5EA4DE"/>
<path d="M735.527 586.916C736.243 586.909 736.958 586.902 737.695 586.895C739.212 586.885 740.728 586.881 742.245 586.881C744.552 586.877 746.857 586.84 749.164 586.802C750.639 586.796 752.115 586.792 753.59 586.791C754.274 586.776 754.959 586.762 755.664 586.747C760.653 586.794 763.483 588.129 767.324 591.252C769.424 595.451 768.554 600.95 768.574 605.564C768.595 606.706 768.615 607.847 768.637 609.023C768.644 610.677 768.644 610.677 768.652 612.365C768.662 613.373 768.671 614.382 768.681 615.421C768.266 618.712 767.31 620.613 765.324 623.252C764.664 623.252 764.004 623.252 763.324 623.252C763.324 623.912 763.324 624.572 763.324 625.252C758.413 625.351 753.502 625.423 748.59 625.471C746.92 625.491 745.25 625.519 743.58 625.553C741.177 625.602 738.775 625.625 736.371 625.642C735.626 625.663 734.881 625.683 734.114 625.705C730.632 625.706 728.703 625.537 725.884 623.415C722.224 618.339 723.102 612.371 723.074 606.377C723.054 605.287 723.033 604.198 723.012 603.076C723.007 602.023 723.001 600.969 722.996 599.884C722.987 598.924 722.977 597.964 722.968 596.975C724.001 589.084 728.312 586.939 735.527 586.916Z" fill="#5EA5DE"/>
<path d="M802.893 509.882C805.119 509.877 807.343 509.841 809.568 509.803C810.993 509.797 812.419 509.793 813.844 509.791C815.779 509.779 815.779 509.779 817.753 509.766C821.919 510.333 824.078 511.63 827.324 514.252C829.424 518.451 828.554 523.951 828.574 528.565C828.595 529.706 828.615 530.848 828.637 532.024C828.644 533.678 828.644 533.678 828.652 535.365C828.662 536.374 828.671 537.382 828.681 538.421C828.262 541.742 827.303 543.572 825.324 546.252C821.687 548.677 818.943 548.575 814.734 548.588C813.993 548.595 813.253 548.601 812.489 548.608C810.923 548.618 809.357 548.623 807.791 548.623C805.399 548.627 803.008 548.663 800.615 548.701C799.092 548.707 797.57 548.711 796.047 548.713C794.976 548.735 794.976 548.735 793.884 548.757C790.48 548.725 788.647 548.498 785.904 546.411C782.208 541.36 783.102 535.367 783.074 529.377C783.054 528.288 783.033 527.199 783.012 526.076C783.007 525.023 783.001 523.97 782.996 522.885C782.987 521.925 782.977 520.965 782.968 519.975C783.394 516.72 784.392 514.887 786.324 512.252C791.254 508.966 797.12 509.88 802.893 509.882Z" fill="#ADCEF3"/>
<path d="M795.817 793.084C796.93 793.079 796.93 793.079 798.066 793.074C799.638 793.069 801.21 793.067 802.782 793.067C805.183 793.065 807.584 793.047 809.985 793.028C811.512 793.025 813.039 793.023 814.567 793.022C815.284 793.015 816 793.007 816.739 793C823.375 793.03 823.375 793.03 826.325 795.252C829.551 799.926 828.653 805.749 828.637 811.19C828.653 812.274 828.669 813.359 828.686 814.477C828.687 815.526 828.687 816.574 828.688 817.655C828.691 818.608 828.694 819.562 828.697 820.545C828.102 824.869 826.478 827.336 823.08 830.035C817.991 832.282 812.451 831.771 806.977 831.753C804.83 831.752 802.686 831.794 800.539 831.838C799.166 831.843 797.792 831.846 796.418 831.846C794.557 831.857 794.557 831.857 792.659 831.867C788.447 831.09 786.998 829.517 784.325 826.252C782.225 822.053 783.095 816.553 783.075 811.94C783.054 810.798 783.033 809.657 783.012 808.481C783.004 806.827 783.004 806.827 782.996 805.139C782.982 803.626 782.982 803.626 782.968 802.083C783.383 798.788 784.376 796.918 786.325 794.252C789.352 792.738 792.495 793.089 795.817 793.084Z" fill="#0029FA"/>
<path d="M742.893 509.882C745.119 509.877 747.343 509.841 749.568 509.803C750.993 509.797 752.419 509.793 753.844 509.791C755.779 509.779 755.779 509.779 757.753 509.766C761.919 510.333 764.078 511.63 767.324 514.252C769.424 518.451 768.554 523.951 768.574 528.565C768.595 529.706 768.615 530.848 768.637 532.024C768.644 533.678 768.644 533.678 768.652 535.365C768.662 536.374 768.671 537.382 768.681 538.421C768.262 541.742 767.303 543.572 765.324 546.252C761.687 548.677 758.943 548.575 754.734 548.588C753.993 548.595 753.253 548.601 752.489 548.608C750.923 548.618 749.357 548.623 747.791 548.623C745.399 548.627 743.008 548.663 740.615 548.701C739.092 548.707 737.57 548.711 736.047 548.713C734.976 548.735 734.976 548.735 733.884 548.757C730.48 548.725 728.647 548.498 725.904 546.411C722.208 541.36 723.102 535.367 723.074 529.377C723.054 528.288 723.033 527.199 723.012 526.076C723.007 525.023 723.001 523.97 722.996 522.885C722.987 521.925 722.977 520.965 722.968 519.975C723.394 516.72 724.392 514.887 726.324 512.252C731.254 508.966 737.12 509.88 742.893 509.882Z" fill="#AECEF3"/>
<path d="M682.893 509.882C685.119 509.877 687.343 509.841 689.568 509.803C690.993 509.797 692.419 509.793 693.844 509.791C695.779 509.779 695.779 509.779 697.753 509.766C701.919 510.333 704.078 511.63 707.324 514.252C709.424 518.451 708.554 523.951 708.574 528.565C708.595 529.706 708.615 530.848 708.637 532.024C708.644 533.678 708.644 533.678 708.652 535.365C708.662 536.374 708.671 537.382 708.681 538.421C708.262 541.742 707.303 543.572 705.324 546.252C701.693 548.673 698.938 548.592 694.734 548.623C693.993 548.632 693.253 548.641 692.489 548.651C690.923 548.665 689.357 548.674 687.791 548.678C685.398 548.69 683.008 548.739 680.615 548.789C679.092 548.799 677.57 548.806 676.047 548.811C674.976 548.84 674.976 548.84 673.884 548.87C670.095 548.836 668.634 548.561 665.904 545.842C662.599 540.424 663.103 535.699 663.074 529.44C663.054 528.346 663.033 527.252 663.012 526.125C663.007 525.068 663.001 524.01 662.996 522.92C662.987 521.954 662.977 520.987 662.968 519.991C663.393 516.727 664.385 514.894 666.324 512.252C671.254 508.966 677.12 509.88 682.893 509.882Z" fill="#5EA5DF"/>
<path d="M736.292 792.588C737.05 792.584 737.808 792.579 738.589 792.574C740.186 792.57 741.783 792.58 743.38 792.6C745.817 792.627 748.25 792.601 750.687 792.569C752.243 792.572 753.799 792.578 755.355 792.588C756.079 792.578 756.803 792.568 757.549 792.558C761.33 792.645 763.206 793.166 766.28 795.421C768.627 798.673 768.966 800.249 768.988 804.217C768.997 805.912 768.997 805.912 769.007 807.641C768.988 808.812 768.969 809.983 768.949 811.19C768.968 812.357 768.987 813.524 769.007 814.727C769.001 815.858 768.994 816.989 768.988 818.155C768.979 819.694 768.979 819.694 768.971 821.264C768.061 825.465 766.506 827.386 763.324 830.252C760.374 830.843 758.256 831.053 755.32 830.979C754.56 830.98 753.799 830.981 753.016 830.982C751.415 830.977 749.813 830.958 748.213 830.925C745.765 830.877 743.321 830.884 740.873 830.897C739.313 830.886 737.754 830.872 736.195 830.854C735.101 830.857 735.101 830.857 733.985 830.859C730.52 830.763 728.653 830.512 725.894 828.34C722.09 823.283 723.021 817.557 722.949 811.44C722.911 810.251 722.874 809.062 722.835 807.836C722.824 806.688 722.812 805.541 722.8 804.358C722.78 803.307 722.761 802.257 722.74 801.175C724.223 793.747 729.549 792.494 736.292 792.588Z" fill="#0029FC"/>
</svg>
